<?xml version="1.0" encoding="utf-8"?>
<!-- Generator: Adobe Illustrator 19.2.1, SVG Export Plug-In . SVG Version: 6.00 Build 0)  -->
<svg version="1.1" id="Layer_1" xmlns="http://www.w3.org/2000/svg" xmlns:xlink="http://www.w3.org/1999/xlink" x="0px" y="0px"
	 viewBox="0 0 100 100" style="enable-background:new 0 0 100 100;" xml:space="preserve">
<style type="text/css">
	.st0{fill:#FFFFFF;}
</style>
<g>
	<path class="st0" d="M7,50C7,36.3,17,26.9,29.3,26.9c6.3,0,11.6,2.5,15.5,7l-1.7,1.5c-3.1-4-8.3-6.5-13.9-6.5
		c-11.2,0-20,8.5-20,21.1c0,12.5,8.8,21.1,20,21.1c5.6,0,10.7-2.5,13.9-6.5L45,66c-4.2,4.8-9.3,7.1-15.6,7.1C17,73.1,7,63.7,7,50z"
		/>
	<path class="st0" d="M55,50c0-13.7,9.9-23.1,22.3-23.1c6.3,0,11.6,2.5,15.5,7l-1.7,1.5c-3.1-4-8.3-6.5-13.9-6.5
		c-11.2,0-20,8.5-20,21.1c0,12.5,8.8,21.1,20,21.1c5.6,0,10.7-2.5,13.9-6.5L93,66c-4.2,4.8-9.3,7.1-15.6,7.1C65,73.1,55,63.7,55,50z
		"/>
	<path class="st0" d="M29,34c0,0,0.3,1.9,0.6,4.7c0.1,1.4,0.2,3,0.3,4.8c0,0.9,0.1,1.8,0.1,2.7c0,0.9,0,1.9,0,2.8c0,0.9,0,1.9,0,2.8
		c0,0.9-0.1,1.8-0.1,2.7c-0.1,1.8-0.2,3.4-0.3,4.8C29.3,62.1,29,64,29,64s-0.3-1.9-0.6-4.7c-0.1-1.4-0.2-3-0.3-4.8
		c0-0.9-0.1-1.8-0.1-2.7c0-0.9,0-1.9,0-2.8c0-0.9,0-1.9,0-2.8c0-0.9,0.1-1.8,0.1-2.7c0.1-1.8,0.2-3.4,0.3-4.8C28.7,35.9,29,34,29,34
		z"/>
	<path class="st0" d="M77,34c0,0,0.3,1.9,0.6,4.7c0.1,1.4,0.2,3,0.3,4.8c0,0.9,0.1,1.8,0.1,2.7c0,0.9,0,1.9,0,2.8c0,0.9,0,1.9,0,2.8
		c0,0.9-0.1,1.8-0.1,2.7c-0.1,1.8-0.2,3.4-0.3,4.8C77.3,62.1,77,64,77,64s-0.3-1.9-0.6-4.7c-0.1-1.4-0.2-3-0.3-4.8
		c0-0.9-0.1-1.8-0.1-2.7c0-0.9,0-1.9,0-2.8c0-0.9,0-1.9,0-2.8c0-0.9,0.1-1.8,0.1-2.7c0.1-1.8,0.2-3.4,0.3-4.8C76.7,35.9,77,34,77,34
		z"/>
</g>
</svg>
