<svg id="Layer_1" data-name="Layer 1" xmlns="http://www.w3.org/2000/svg" viewBox="0 0 200 200"><defs><style>.cls-1{fill:#010101;}.cls-2,.cls-3{fill:#fff;}.cls-3{fill-rule:evenodd;}</style></defs><title>grst</title><rect class="cls-1" x="0.36" y="0.36" width="199.27" height="199.27"/><path class="cls-2" d="M199.14,0.86V199.14H0.86V0.86H199.14m1-1H-0.14V200.14H200.14V-0.14h0Z"/><path class="cls-3" d="M148,76.4c-9.4,5.83-18.07,12.39-28.55,17.13a16.77,16.77,0,0,1,.17-2.18c2.17-2.09,4.18-4.33,6.22-6.55-0.67-1.16.49-2.68,1.85-2.85,3.66-4.74,9.43-8.27,12.43-13.1a1.6,1.6,0,0,1-1.17.67A37.71,37.71,0,0,1,125,81.1a6.8,6.8,0,0,1-3.86,3,2.38,2.38,0,0,1-.5-1.18,3.13,3.13,0,0,0-1.34-.17c-0.48-1.6-.69-3.46-2-4.2,0.2-3.17-.2-8,0.17-11.59-0.7,2.44-.75,5.53-1.85,7.56-0.78-8.09-1-14.83-1.16-23.11a1.15,1.15,0,0,1,0-.55c0-.12,0-0.24,0-0.36a1,1,0,0,1,0,.36c0,0.19,0,.37,0,0.55a0.17,0.17,0,0,0,.15.1c0.51-3.51,1.38-7.08,1.18-10.08-0.91,1.61-.23,4.81-1.34,6.22,0.53-3.63-.81-6.85-0.67-10.75a26.48,26.48,0,0,0-.34-6.55c-0.07,5-.21,11.21.67,15.79-0.62.56,0,1.31,0,2-0.11,2.09-1.41,4.38-1,6.72,0.35,2,.88,4.39-0.67,6.21-1.6-2.72-2.29-6.33-3.36-9.57-1.55-.85-1.46-3.36-2.52-4.7-0.33,1.09.5,1.78,0.84,2.69,0.93,2.46,1.28,5.14,2,7.73,0.25,0.87.88,1.52,1.18,2.35a20.43,20.43,0,0,1,.84,5.21c0.11,2.24,1.41,4.82,1.34,7.56,0,0.41-.78.86-1,1.51,0.21,0.76.75,1.64,0.33,2.52-1.71.25-2.82,1.1-4.2,1.68-1.67-1-1.42-3.1-1.68-4.87-0.6-4-1.07-8.23-1.68-12.43-0.29,3.69,1.35,8.31-.17,11.93,0,1.27.92,2.7,0.34,3.53a26.18,26.18,0,0,0-3.36-2.69A6.87,6.87,0,0,0,100,71.19c-0.85.52,0.65,1.43,0.17,2-2.38-.93-3.74-2.87-6-3.86,1.07,1.4,2.09,2.84,4.2,3.19,1.5,2.47,4.61,3.34,6.22,5.71-1.33,1.95-4.32,2-6.22,3.53-0.7.58-1.24,1.63-2.52,1.51-2.23,2.36-3.52,5.66-6.55,7.22-1.18-1.15.43-3.06,0.17-4.2-0.76.42-.41,1.94-1.18,2.35-0.06-.61-0.54-0.8-0.34-1.68C85.43,83.57,86,77.66,84,74c0.05,4.53,3.29,10.2,2.52,15.12-0.21,1.36-.46,2.17.5,3a3.8,3.8,0,0,0,.17,2.69c-0.7,1.35-1.88,3-1.68,4.7-0.71.06-.87,0.78-1.51,0.84a6.12,6.12,0,0,1-2.35-.84c-1.72-1.13-3.28-4-4.87-4.54,0.95,2.17,3.59,2.75,3.7,4.87-3.08,1-4.3-1.68-7.56-1.85a3.4,3.4,0,0,0-1,.84c-3.77-.2-5.57-3.67-6.55-6.89-0.67-2.2-.71-4.94-2-6.72,0.35,2,1.36,4.92.84,6.72-1.9-1.2-3-3.75-4.2-6a11.38,11.38,0,0,1-4.2-3.19,30.09,30.09,0,0,1-4.37-3.19c-0.5-.39-1.12-1.39-1.68-0.84,3.18,2.53,6.08,5.34,9.24,7.89,0.06,0.81.94,1.6,0.84,2.35a32.44,32.44,0,0,0-3.36-1.85c0.91,1.89,3.18,2.42,4.7,3.7,0.6,2.2,3.56,2.93,3.19,5.54a14.14,14.14,0,0,0-2.85-3c0,1.63,2,1.26,1.85,3a6.77,6.77,0,0,1,3.19,3.36c-1.64,1.38-4.59.44-6.89,1.18a5.75,5.75,0,0,0-2.69-.84c-0.4-.43-1.92-1.38-2.18-0.84,0.07,0.83,1.33.46,1.68,1-1.08.08-1.49,0.84-2.35,1-2.59.51-5.33-.18-7.73-0.17-4.4,0-9-.3-12.6-0.5-0.74,0-1.77.38-2.52,0.34-0.54,0-1.23-.29-1.85-0.34-1.13-.08-2.8-0.41-3.53.67,7.39,0.39,14.92.32,22.51,1.34-0.78.34-2.2,0-2.18,1.18,5.23-1.25,9.32-2.07,15.45-1-3.62,2.27-8.15.59-11.93,0.84,1.35,0.7,3.64.46,4.7,1-4.1.55-6.18,3.32-10.08,3.7,0.45,0.15-.38.38-0.34,0.67,4.38-.63,6.9-3.66,10.92-3.7-0.56-.15-0.18-0.41.17-0.5,0,0.25-.06.62,0.17,0.67,2.62-.29,5.43-2,8.23-1.85,1.86,0.07,3-.94,4.54-1.18,1.79-.27,3.4.28,4.7,0.34,1,0,2.7-.72,2.86.67-0.6-.1-1.71,1-2,1.18-2.22,1.14-4.5,2.22-6.55,3.53,2.2-.51,4.91-2.8,7.56-2.85,0.21-.63,1.23-0.77,1.18-1.18,2-.46,3.56-0.81,5.21.17,0.78,0.46,1.21,1.56,2.18,1.51-0.11,1.85,2.07,2.11,3.19,1.34a2.8,2.8,0,0,1,2,2.52c-2.63,2.34-6.73.7-9.24-.17-0.61.68-2.65,0.82-2.69,1.51a17.61,17.61,0,0,1,2.69-.67c4.89,1.26,10.7.75,13.1,5-0.25,1.62-.58,4.8-1.85,6.38,0.93-.19,1-1.23,1.51-1.85-0.22,4.93-1.61,9.48-1.51,13.77,1.57-5.71,1.3-10.43,3.86-14.61a2.56,2.56,0,0,1,1-.17c0.94,2,.15,3.52,0,5.88,1.11-.57.81-2.55,2.18-2.86a2.88,2.88,0,0,0,1.68.84c1.67,2.52,0,4.81-.84,7.05-1.19,1.05-2.65,1.83-3.19,3.53-1.45.36-1.81,1.77-2.52,2.52-0.48.51-2.21,1.05-1.68,2.18a56,56,0,0,1,7.05-6.55c0.79,0.75.4,2.16,0.17,3a67.08,67.08,0,0,1-2.69,7.39c-0.53,5.17-3.32,10.16-4.53,15.45-0.16.69,0,1.49-.17,2.18C90,163,88,166.3,88.54,169.62c1.53-6.11,3-12.21,4.53-17.8,0.39,0.33.19,0,.5-0.17a66.92,66.92,0,0,0,3-9.41c0.54,0.15.35-.44,0.67-0.5,0.86-3.75,2-8.29,4.7-10.75,1.26,0.25,1.16-.86,2-1,1.6,1.08,3.3,2.07,3.7,4.37,2.71,0.43,4.07,2.1,6.72,2.18,0.27-.46,1.08-0.38.84-1.34-0.52-.47-0.45.67-1.17,0.51-2.72-.48-5.52-2.6-5.71-5.54a8.83,8.83,0,0,1,5.37-8.57,1.94,1.94,0,0,1,.84-0.17c2.47,0.55-1.22,6.35-.67,8.23,1.18-1.12,1-3.55,2-4.87,1.17,0,1.75,1.07,2.18,1.85,2.07,3.64,3.79,8.07,6,11.59,0.7,1.88,1.55,4.49,2.86,5.21-3.12-6.17-6.09-12.5-8.73-19.15a2.94,2.94,0,0,1,.67-1,2.42,2.42,0,0,0,1.51.34c0.42-.44.11-0.64,0.5-1.18,1.33-.69,2.56-2.23,3.7-2.86a9.88,9.88,0,0,1,2.18-.5c2.38-.71,4.23-2.69,6-3.86,0.44-.28,1.05-0.14,1.17-0.84-1,.27-2.12,1.35-2.86,1.34,2.32-2.63,4-5.57,6.38-8.06,1.55-1.64,4-2.91,4.7-5.21,1.06-.28,1.46-1.22,1.85-2.18-2.22,1-3,3.2-4.54,4.7a13.57,13.57,0,0,0-2.35,2c-0.62.34-.68,0.2-1.34,0.5a2,2,0,0,1-.67,1c-1.25-.32-1.25-1.89-2-2.69,0.18-5.78-2.87-8.33-4.2-12.6,1.89-1.71,4-2.67,6.38-4.54-1.67,1-3.59,1.67-5.21,2.69,0.86-3.9,5.13-5.69,8.4-7.73-0.23-.68.36-0.53,0.34-1A50.78,50.78,0,0,0,147,77.07C146.94,77.74,148.53,76.76,148,76.4ZM112.39,94.88c0.09,1.64.76,3.49-.67,4.2-0.37-4.64-.09-9.95-0.17-14.45C113.4,86.44,112.2,91.13,112.39,94.88ZM104.5,84.63c1.87-1.65,5.51-4,8.06-4.37-0.5,3-4.3,6.49-7.39,5.88a6.8,6.8,0,0,1-2.18.34C102.88,85.8,103.81,85.24,104.5,84.63Zm6,30.23a18.87,18.87,0,0,1-10.08-12.6,6.77,6.77,0,0,1-1.85-3.86c-0.21-1.92.9-3.19,1.18-4.87a16.53,16.53,0,0,0-.17-1.85c0.19-1.81,1.94-2,2.18-4h0.84c0.14,2.61.62,4.87,0.67,7.56-0.88,1-2.72,1.08-3.53,2.18a2.6,2.6,0,0,0,2.18-.67c0.48,0.08.24,0.88,1,.67,0.13,2.27-.18,4.07.17,6.22-0.28.36-1.24,0.65-.84,1.18,2.32,0.75,3.95-.64,5.38-1.34,0.75,2.13-1.44,5.08-.84,7.05,0.55-1.09.57-2.5,1.18-3.86C108.66,109,110.86,112,110.55,114.87Zm1.85-.5c-2-2-2.5-6.44-4.37-8.06,0.81-2.14,1.26-3.86,3.36-4.87C113.42,103.85,112.85,110.55,112.39,114.36Zm3-18.48c0.25-1.39-.2-2.65.5-4.2a3.81,3.81,0,0,1,2.52,2.18A7.66,7.66,0,0,1,115.42,95.89Zm0.5,15.12c-0.56-.93-0.07-1.95-0.34-2.35,0.07-.25.21,0.07,0.5,0C115.61,109.35,116.42,110.32,115.92,111Zm8.23-2.35a11.45,11.45,0,0,1-1,7.05c-0.52,1-2.34,2.4-3,2.35-2.55-.19-0.21-5.19-1.51-6,0.34-2.34.92-4.45,1.18-6.89-0.94,1.41-.94,3.76-1.68,5.38a49.34,49.34,0,0,1-1-12.77c-1.2,1,.15,3.53-0.5,5-0.49-.4.14-1.66-0.5-1.51-0.5,1.24.28,4.08,0.34,5.88-1.56-2.18-.64-6.93-0.84-9.57,2.11-2.25,3.49,1,4,2.86,3.23,0.3,4.06,3,4.37,6.22,0.1,0.51.9,0.33,1,.84C125.16,108.32,124.24,108.07,124.15,108.65Zm4.7-16.46A1.74,1.74,0,0,1,130,90.51C129.67,91.1,129.55,91.93,128.85,92.19Z"/></svg>