<svg id="Layer_1" data-name="Layer 1" xmlns="http://www.w3.org/2000/svg" viewBox="0 0 200 200"><defs><style>.cls-1{fill:#ec2427;}.cls-2{fill:#fff;}</style></defs><title>STC</title><rect class="cls-1" width="200" height="200"/><path class="cls-2" d="M64.41,102.28a7.43,7.43,0,0,0-3-.86c-0.86,0-1.4.31-1.4,0.79,0,1.45,4.87,1,4.87,4.38,0,1.84-1.54,2.91-3.68,2.91a6.5,6.5,0,0,1-3.45-.93v-2.06A5.55,5.55,0,0,0,61,107.74c0.91,0,1.4-.32,1.4-0.88,0-1.57-4.87-1-4.87-4.44,0-1.66,1.43-2.75,3.65-2.75a7.84,7.84,0,0,1,3.24.74v1.87Z"/><path class="cls-2" d="M69.42,107.8a1.73,1.73,0,0,1-1.12.49,0.67,0.67,0,0,1-.66-0.69c0-.65.58-0.93,1.78-1.36v1.56Zm2.37,0.34c-0.21,0-.34-0.13-0.34-0.45v-2.95c0-1.42-1.11-2-2.74-2a5.26,5.26,0,0,0-2.81.79v1.66a3.53,3.53,0,0,1,2.39-1.08,1,1,0,0,1,1.12,1.08c-2.71.84-3.85,1.15-3.85,2.7a1.73,1.73,0,0,0,1.81,1.59,3.62,3.62,0,0,0,2.13-.73,1,1,0,0,0,1.14.73,4.23,4.23,0,0,0,1.91-.59v-1.14a1.32,1.32,0,0,1-.77.37"/><polygon class="cls-2" points="72.31 102.9 74.48 102.9 75.86 106.47 77.25 102.9 79.41 102.9 76.43 109.5 75.3 109.5 72.31 102.9"/><path class="cls-2" d="M83.22,104a1.39,1.39,0,0,1,1.4,1.42H81.82a1.37,1.37,0,0,1,1.4-1.42m-1.45,2.48h4.65a3.38,3.38,0,1,0-6.75-.31c0,2,1.47,3.34,3.75,3.34a4.69,4.69,0,0,0,2.89-.86v-1.28a3.8,3.8,0,0,1-2.4.93,1.89,1.89,0,0,1-2.13-1.82"/><path class="cls-2" d="M95.72,104.29H93.37V107a0.94,0.94,0,0,0,1,1,2.83,2.83,0,0,0,1.36-.38v1.47a4.6,4.6,0,0,1-1.88.41,2.23,2.23,0,0,1-2.51-2.43v-2.78H90.4V103.9l2.71-3h0.25v2h2.36v1.39Z"/><path class="cls-2" d="M98.56,103.86h0a2.5,2.5,0,0,1,2-1.08,2.27,2.27,0,0,1,2.37,2.47v4.13h-2v-3.69c0-1-.42-1.42-1.05-1.42a1.74,1.74,0,0,0-1.36,1v4.13h-2V99.8h2v4.06Z"/><path class="cls-2" d="M107.62,104a1.39,1.39,0,0,1,1.4,1.42h-2.81a1.38,1.38,0,0,1,1.4-1.42m-1.45,2.48h4.65a3.38,3.38,0,1,0-6.75-.31c0,2,1.47,3.34,3.75,3.34a4.68,4.68,0,0,0,2.89-.86v-1.28a3.8,3.8,0,0,1-2.4.93,1.89,1.89,0,0,1-2.13-1.82"/><path class="cls-2" d="M124.63,108.54a7.44,7.44,0,0,1-3.76,1c-3.72,0-5.57-2.41-5.57-4.88s2.09-4.94,5.75-4.94a6.75,6.75,0,0,1,3.47.84v2.13a6.68,6.68,0,0,0-3.3-1c-2,0-3.47,1.21-3.47,2.9s1.42,2.93,3.41,2.93a7.44,7.44,0,0,0,3.47-1.05v2.09Z"/><path class="cls-2" d="M128.08,103.86h0a2.5,2.5,0,0,1,2-1.08,2.27,2.27,0,0,1,2.37,2.47v4.13h-2v-3.69c0-1-.42-1.42-1.05-1.42a1.74,1.74,0,0,0-1.36,1v4.13h-2V99.8h2v4.06Z"/><rect class="cls-2" x="133.96" y="102.9" width="2.04" height="6.47"/><path class="cls-2" d="M136.09,100.8A1.12,1.12,0,1,1,135,99.67a1.13,1.13,0,0,1,1.12,1.12"/><rect class="cls-2" x="137.48" y="99.8" width="2.04" height="9.57"/><path class="cls-2" d="M145.44,107.6a1.71,1.71,0,0,1-1.21.53c-1,0-1.56-.79-1.56-2s0.6-2,1.63-2a2.19,2.19,0,0,1,1.14.38v3.09Zm0-7.8v3.38a3.77,3.77,0,0,0-1.68-.41,3.37,3.37,0,0,0-.11,6.72,2.65,2.65,0,0,0,1.8-.65v0.52h2V99.8h-2Z"/><path class="cls-2" d="M151,104.75h0c0.6-1.35,1.28-2,2.06-2a2.22,2.22,0,0,1,1.35.59l-0.56,1.8a2.35,2.35,0,0,0-1.21-.48c-0.74,0-1.22.7-1.67,1.89v2.79h-2V102.9h2v1.85Z"/><path class="cls-2" d="M158.1,104a1.39,1.39,0,0,1,1.4,1.42h-2.81a1.38,1.38,0,0,1,1.4-1.42m-1.45,2.48h4.65a3.38,3.38,0,1,0-6.75-.31c0,2,1.47,3.34,3.75,3.34a4.68,4.68,0,0,0,2.89-.86v-1.28a3.8,3.8,0,0,1-2.4.93,1.89,1.89,0,0,1-2.13-1.82"/><path class="cls-2" d="M164.37,103.83a2.61,2.61,0,0,1,2.11-1.05,2.27,2.27,0,0,1,2.36,2.48v4.11h-2v-3.95a1.06,1.06,0,0,0-1-1.29,1.74,1.74,0,0,0-1.42,1.07v4.17h-2V102.9h2v0.93Z"/><path class="cls-2" d="M49.24,92.68c-3,2.65-5.81,4-8.25,4a9.91,9.91,0,0,1-5.77-2.06,22.7,22.7,0,0,1-3.55-3.24l-0.07-.08a11.58,11.58,0,0,1,5.33-2.82h0a5.83,5.83,0,0,0-.28,2.41,5.47,5.47,0,0,0,1.84,3.72,3.67,3.67,0,0,0,5.34-.47,5.47,5.47,0,0,0,1.17-4,5.81,5.81,0,0,0-.13-0.81h0A12.92,12.92,0,0,1,48.58,92C48.81,92.2,49,92.44,49.24,92.68ZM35.08,103.21a26.14,26.14,0,0,0-.86,7.67h0a13.11,13.11,0,0,1-2.54-2,12.83,12.83,0,0,1-3.7-7.67,11.9,11.9,0,0,1,1.81-7.75h0c0.46,0.55,1,1.19,1.6,1.85a40.05,40.05,0,0,1,3.82,4.77c0.44,0.74.23,1.63-.13,3.11m17.11-9.78c1.29-1.33,1.86-1.94,1.77-2.3a1.22,1.22,0,0,0-.74-0.71,1.89,1.89,0,0,0-1.37-.16,4.69,4.69,0,0,0-.72.66l-0.41.4h0C50.5,91,50.26,90.78,50,90.54a12.86,12.86,0,0,0-6.26-3.45,3.94,3.94,0,0,0-3.39-1.55,3.82,3.82,0,0,0-2.72,1.58A14.42,14.42,0,0,0,31,90.75h0a3,3,0,0,0-1.81.21,0.91,0.91,0,0,0-.57.55c0,0.17,0,.43.63,1.24h0a14.2,14.2,0,0,0-2.73,9,13,13,0,0,0,3.76,8.57,12.78,12.78,0,0,0,2.67,2.05h0a15.82,15.82,0,0,0,14.76.49h0a0.8,0.8,0,0,0,.39-1l0-.13c-0.63-1.71-2.53-6.92-1-11.45a17.14,17.14,0,0,1,3.74-5.37h0a12.63,12.63,0,0,1,1.5,7.41,11.53,11.53,0,0,1-2.74,6.34h0a0.27,0.27,0,0,0-.08.19,0.27,0.27,0,0,0,0,.09l0.12,0.34a0.27,0.27,0,0,0,.45.09h0a13.89,13.89,0,0,0,2.13-15.93"/><path class="cls-2" d="M172.08,107.24v-0.07A0.22,0.22,0,0,0,172,107a0.16,0.16,0,0,0-.13-0.06h-0.27v0.49h0.27a0.16,0.16,0,0,0,.14-0.05,0.24,0.24,0,0,0,0-.16m0,1.27v-0.33a0.7,0.7,0,0,0-.08-0.34,0.22,0.22,0,0,0-.2-0.14h-0.13v0.81h-0.44v-1.85h0.72a0.71,0.71,0,0,1,.44.11,0.35,0.35,0,0,1,.14.29v0.16a0.37,0.37,0,0,1-.08.25,0.37,0.37,0,0,1-.21.12,0.55,0.55,0,0,1,.27.28,0.89,0.89,0,0,1,.07.33v0.3H172Zm1.1-.9a1.35,1.35,0,0,0-.39-1,1.26,1.26,0,0,0-1.86,0,1.38,1.38,0,0,0,0,1.91,1.26,1.26,0,0,0,1.86,0,1.35,1.35,0,0,0,.39-1m0.41,0a1.73,1.73,0,0,1-3.45,0,1.73,1.73,0,0,1,1.73-1.74,1.66,1.66,0,0,1,1.22.51,1.68,1.68,0,0,1,.51,1.23"/></svg>