<svg id="Layer_1" data-name="Layer 1" xmlns="http://www.w3.org/2000/svg" viewBox="0 0 200 200"><defs><style>.cls-1{fill:#8fc572;}.cls-2{fill:#fff;}</style></defs><title>hideaway</title><rect class="cls-1" width="200" height="200"/><path class="cls-2" d="M51.85,103.13h0a2.21,2.21,0,0,1,2.21,2.21v6a1,1,0,0,1-1,1H50.58a0.91,0.91,0,0,1-.91-0.91v-6.08a2.18,2.18,0,0,1,2.18-2.18Z"/><path class="cls-2" d="M175.6,121.47h0c-3.32,0-5.92-2.16-5.92-4.91v-7.85a1.2,1.2,0,1,1,2.39,0v7.85c0,1.38,1.59,2.51,3.55,2.51s3.63-1.15,3.63-2.51v-7.85a1.2,1.2,0,1,1,2.39,0v7.85c0,2.7-2.69,4.9-6,4.91h0Z"/><path class="cls-2" d="M173.94,127.1a12.92,12.92,0,0,1-3.5-.54,1.2,1.2,0,0,1,.65-2.3c2.58,0.73,4.55.56,5.87-.5,2.35-1.9,2.14-6.19,2.14-6.23a1.2,1.2,0,0,1,1.12-1.27,1.18,1.18,0,0,1,1.27,1.12c0,0.23.31,5.55-3,8.24A7,7,0,0,1,173.94,127.1Z"/><path class="cls-2" d="M159.74,121.15a7.08,7.08,0,1,1,7.08-7.08A7.09,7.09,0,0,1,159.74,121.15Zm0-11.77a4.69,4.69,0,1,0,4.69,4.69A4.69,4.69,0,0,0,159.74,109.39Z"/><path class="cls-2" d="M165.67,121.07a1.2,1.2,0,0,1-1.2-1.2V108.32a1.2,1.2,0,0,1,2.39,0v11.56A1.2,1.2,0,0,1,165.67,121.07Z"/><path class="cls-2" d="M123.86,121.15a7.08,7.08,0,1,1,7.08-7.08A7.09,7.09,0,0,1,123.86,121.15Zm0-11.77a4.69,4.69,0,1,0,4.69,4.69A4.69,4.69,0,0,0,123.86,109.39Z"/><path class="cls-2" d="M129.8,121.07a1.2,1.2,0,0,1-1.2-1.2V108.32a1.2,1.2,0,0,1,2.39,0v11.56A1.2,1.2,0,0,1,129.8,121.07Z"/><path class="cls-2" d="M91.57,121.15a7.08,7.08,0,1,1,7.08-7.08A7.09,7.09,0,0,1,91.57,121.15Zm0-11.77a4.69,4.69,0,1,0,4.69,4.69A4.69,4.69,0,0,0,91.57,109.39Z"/><path class="cls-2" d="M97.51,121.15a1.2,1.2,0,0,1-1.2-1.2v-17.3a1.2,1.2,0,1,1,2.39,0V120A1.2,1.2,0,0,1,97.51,121.15Z"/><path class="cls-2" d="M75.58,121.07a1.2,1.2,0,0,1-1.2-1.2V102.74a1.2,1.2,0,1,1,2.39,0v17.14A1.2,1.2,0,0,1,75.58,121.07Z"/><path class="cls-2" d="M64.82,121.07a1.2,1.2,0,0,1-1.2-1.2V102.74a1.2,1.2,0,1,1,2.39,0v17.14A1.2,1.2,0,0,1,64.82,121.07Z"/><path class="cls-2" d="M107.82,121.16a7.08,7.08,0,0,1-7.08-7.07c0-.09,0-0.17,0-0.26a1.2,1.2,0,0,1,0-.33,1.19,1.19,0,0,1,.14-0.56,7.08,7.08,0,0,1,7-5.91,6.88,6.88,0,0,1,7,6.34,1.2,1.2,0,0,1-1.19,1.32h-10.5a4.69,4.69,0,0,0,4.65,4.08,4.59,4.59,0,0,0,3.72-1.86,1.2,1.2,0,0,1,1.92,1.43A7,7,0,0,1,107.82,121.16Zm-4.33-8.86h8.67a4.54,4.54,0,0,0-4.34-2.88A4.69,4.69,0,0,0,103.49,112.3Z"/><path class="cls-2" d="M75.58,112.3H64.82a1.2,1.2,0,0,1,0-2.39H75.58A1.2,1.2,0,0,1,75.58,112.3Z"/><path class="cls-2" d="M146,121.15h0a1.2,1.2,0,0,1-1.08-.72l-2.49-5.79-2.7,5.82a1.2,1.2,0,0,1-2.18,0l-5.1-11.64a1.2,1.2,0,1,1,2.19-1l4,9.21,2.71-5.85a1.2,1.2,0,0,1,2.18,0l2.49,5.78,4.23-9.2a1.2,1.2,0,1,1,2.17,1l-5.35,11.64A1.2,1.2,0,0,1,146,121.15Z"/><path class="cls-2" d="M81.16,121.07a1.2,1.2,0,0,1-1.2-1.2V108.32a1.2,1.2,0,1,1,2.39,0v11.56A1.2,1.2,0,0,1,81.16,121.07Z"/><path class="cls-2" d="M81.16,104.33a1.2,1.2,0,0,1-1.2-1.2v-0.4a1.2,1.2,0,1,1,2.39,0v0.4A1.2,1.2,0,0,1,81.16,104.33Z"/><path class="cls-2" d="M39.46,86.35A1.19,1.19,0,0,1,38.64,86l-6.09-5.78a1.2,1.2,0,0,1,1.65-1.74l5.27,5,5.31-5a1.2,1.2,0,0,1,1.64,1.74L40.28,86A1.19,1.19,0,0,1,39.46,86.35Z"/><path class="cls-2" d="M39.31,112.3a1.2,1.2,0,0,1-1.2-1.2V73.64a1.2,1.2,0,1,1,2.39,0v37.47A1.2,1.2,0,0,1,39.31,112.3Z"/><path class="cls-2" d="M39,107H38.88c-0.2,0-19.56-2.73-20.48-21.41-0.38-7.64,3-15.69,9.88-23.27A59.34,59.34,0,0,1,38.76,53.1a1.31,1.31,0,0,1,1.33,0,56.56,56.56,0,0,1,10.5,8.82c6.86,7.35,10.28,15.27,9.91,22.92A1.21,1.21,0,0,1,59.24,86a1.2,1.2,0,0,1-1.14-1.25c0.75-15.26-15.26-26.9-18.65-29.19C36.09,57.92,20,70.15,20.8,85.44,21.62,102.15,39,104.58,39.19,104.6A1.2,1.2,0,0,1,39,107Z"/><path class="cls-2" d="M39.46,97.92a1.19,1.19,0,0,1-.86-0.36L27.78,86.39a1.2,1.2,0,1,1,1.72-1.67l10,10.34L51.16,84.78a1.25,1.25,0,0,1,1.77,0L64.32,95.86a1.2,1.2,0,0,1-1.67,1.71L52,87.23,40.25,97.62A1.19,1.19,0,0,1,39.46,97.92Z"/><path class="cls-2" d="M39.31,112.3H32.93a1.2,1.2,0,0,1,0-2.39h6.38A1.2,1.2,0,0,1,39.31,112.3Z"/></svg>