<svg id="Layer_1" data-name="Layer 1" xmlns="http://www.w3.org/2000/svg" viewBox="0 0 200 200"><defs><style>.cls-1{fill:#fff;}.cls-2{fill:#84b3a0;}.cls-3{fill:#0c3f5f;}</style></defs><title>moody</title><rect class="cls-1" width="200" height="200"/><path class="cls-2" d="M39.22,78.1h6.52v26.18H19.56V98.74C37,98.74,39.22,82.22,39.22,78.1Z"/><path class="cls-3" d="M25.86,110.92H20.5v4.66h4.84v0.79H20.5v6H19.56V110.13h6.3v0.79Z"/><path class="cls-3" d="M38.9,122.58a6.31,6.31,0,1,1,0-12.61,6.27,6.27,0,0,1,6.5,6.25A6.35,6.35,0,0,1,38.9,122.58Zm0-11.69a5.39,5.39,0,1,0,5.42,5.33A5.34,5.34,0,0,0,38.93,110.89Z"/><path class="cls-3" d="M63,116.33a6.72,6.72,0,0,1-.86,4,5.21,5.21,0,0,1-8.5,0,6.88,6.88,0,0,1-.9-4.07v-6.19h0.94v6.37a6.12,6.12,0,0,0,.67,3.24,4.18,4.18,0,0,0,7,0,6.59,6.59,0,0,0,.68-3.28v-6.37H63v6.19Z"/><path class="cls-3" d="M82.17,122.41H81.38l-9.33-10.8v10.8h-1V110.13H72l9.24,10.73V110.13h1v12.28Z"/><path class="cls-3" d="M94.27,110.13a7.75,7.75,0,0,1,4.39.83,5.89,5.89,0,0,1,2.88,5.26,6,6,0,0,1-2.88,5.35,7.85,7.85,0,0,1-4.39.85H90.54V110.13h3.73Zm-2.77.79v10.71h2.88a6.39,6.39,0,0,0,3.75-.85,5.27,5.27,0,0,0,2.36-4.56,5.14,5.14,0,0,0-2.36-4.45,5.87,5.87,0,0,0-3.75-.86H91.5Z"/><path class="cls-3" d="M118.67,122.41h-1l-1.94-4.25h-6l-1.94,4.25h-1L112.44,110H113Zm-5.94-10.82-2.65,5.76h5.28Z"/><path class="cls-3" d="M132.68,110.92h-4.59v11.49h-1V110.92h-4.61v-0.79h10.17v0.79Z"/><path class="cls-3" d="M140.66,122.41h-1V110.13h1v12.28Z"/><path class="cls-3" d="M154.78,122.58a6.31,6.31,0,1,1,0-12.61,6.27,6.27,0,0,1,6.5,6.25A6.35,6.35,0,0,1,154.78,122.58Zm0-11.69a5.39,5.39,0,1,0,5.42,5.33A5.34,5.34,0,0,0,154.81,110.89Z"/><path class="cls-3" d="M180,122.41h-0.79l-9.33-10.8v10.8h-1V110.13h0.88L179,120.86V110.13h1v12.28Z"/><path class="cls-3" d="M49.12,78.09h3.65L62.29,100l9.52-21.93h3.47v26.13H72.85v-23H72.78l-10,23H61.74l-10.11-23H51.55v23H49.12V78.09Z"/><path class="cls-3" d="M92,77.42c8,0,13.51,5.76,13.51,13.73S99.94,104.89,92,104.89,78.46,99.13,78.46,91.16,84,77.42,92,77.42Zm0,25.25c6.83,0,11.07-5,11.07-11.52S98.8,79.64,92,79.64s-11.07,5-11.07,11.52S85.14,102.67,92,102.67Z"/><path class="cls-3" d="M121.83,77.42c8,0,13.51,5.76,13.51,13.73s-5.54,13.73-13.51,13.73-13.51-5.76-13.51-13.73S113.86,77.42,121.83,77.42Zm0,25.25c6.83,0,11.07-5,11.07-11.52s-4.24-11.52-11.07-11.52-11.07,5-11.07,11.52S115,102.67,121.83,102.67Z"/><path class="cls-3" d="M138.62,78.09h8.08c13.58,0,14.14,11.15,14.14,13.07s-0.55,13.07-14.14,13.07h-8.08V78.09ZM141.06,102h5c6.94,0,12.33-3.36,12.33-10.85S153,80.3,146.08,80.3h-5V102Z"/><path class="cls-3" d="M168.41,93l-9.6-14.88h2.92l7.9,12.4,8.08-12.4h2.73L170.84,93v11.26h-2.44V93Z"/></svg>