<?xml version="1.0" encoding="utf-8"?>
<!-- Generator: Adobe Illustrator 19.2.1, SVG Export Plug-In . SVG Version: 6.00 Build 0)  -->
<svg version="1.1" id="Layer_1" xmlns="http://www.w3.org/2000/svg" xmlns:xlink="http://www.w3.org/1999/xlink" x="0px" y="0px"
	 viewBox="0 0 200 200" style="enable-background:new 0 0 200 200;" xml:space="preserve">
<style type="text/css">
	.st0{fill:#FFFFFF;}
	.st1{fill:#EC2427;}
	.st2{fill:#84B3A0;}
	.st3{fill:#0C3F5F;}
	.st4{fill:#EE3124;}
	.st5{stroke:#FFFFFF;stroke-miterlimit:10;}
	.st6{fill:#010101;}
	.st7{fill:none;stroke:#FFFFFF;stroke-width:0;stroke-linecap:round;stroke-linejoin:round;}
	.st8{fill:#E27C00;}
	.st9{fill:#FFD923;}
	.st10{clip-path:url(#SVGID_2_);fill:#FFFFFF;}
	.st11{fill:#FAA819;}
	.st12{fill:#FFFFFE;}
	.st13{fill:#1D5632;}
	.st14{fill:none;stroke:#FFD923;stroke-width:2.5483;}
	.st15{fill:url(#SVGID_3_);}
	.st16{fill:none;}
	.st17{fill:url(#SVGID_4_);}
	.st18{fill:url(#SVGID_5_);}
	.st19{fill:url(#SVGID_6_);}
	.st20{fill:url(#SVGID_7_);}
	.st21{fill:#FFDD00;}
	.st22{fill:url(#SVGID_8_);}
	.st23{fill:url(#SVGID_9_);}
	.st24{fill:url(#SVGID_10_);}
	.st25{fill:url(#SVGID_11_);}
	.st26{fill:url(#SVGID_12_);}
	.st27{fill:url(#SVGID_13_);}
	.st28{fill:url(#SVGID_14_);}
	.st29{fill:url(#SVGID_15_);stroke:#1D5632;stroke-width:0.2028;}
	.st30{fill:#1D5632;stroke:#1D5632;stroke-width:1.3412;}
	.st31{fill:url(#SVGID_18_);}
	.st32{fill:url(#SVGID_19_);}
	.st33{fill:#8FC572;}
	.st34{fill-rule:evenodd;clip-rule:evenodd;fill:#FFFFFF;}
	.st35{fill:#F05523;}
	.st36{fill:#FFFFFF;stroke:#FFFFFF;stroke-width:0.25;}
</style>
<rect class="st35" width="200" height="200"/>
<g>
	<g>
		<g>
			<path class="st0" d="M99.8,54.5c0,0-0.1,0.1-0.2,0.3c-0.1,0.2-0.3,0.5-0.5,0.9c-0.4,0.8-1.1,1.9-1.7,3.3
				c-0.3,0.7-0.6,1.5-0.8,2.3c-0.2,0.8-0.4,1.7-0.4,2.6c0,0.4,0.1,0.9,0.2,1.2c0.1,0.4,0.4,0.7,0.6,1c0.3,0.3,0.6,0.5,1,0.7
				c0.1,0,0.2,0.1,0.3,0.1l0.1,0l0,0l0,0c0,0,0,0,0,0l0,0l0.2,0.1c0.2,0.1,0.4,0.1,0.6,0.1c0.8,0.1,1.6-0.1,2.2-0.7
				c0.3-0.3,0.5-0.7,0.6-1.1c0.1-0.4,0.2-0.9,0.3-1.3c0.1-0.9,0-1.8-0.1-2.7c-0.1-0.8-0.3-1.7-0.5-2.4c-0.2-0.7-0.4-1.4-0.6-2
				c-0.2-0.6-0.4-1.1-0.6-1.5c-0.2-0.4-0.4-0.7-0.5-0.9C99.8,54.6,99.8,54.5,99.8,54.5s0.1,0.1,0.2,0.3c0.2,0.2,0.4,0.5,0.6,0.8
				c0.2,0.4,0.5,0.8,0.8,1.4c0.3,0.6,0.6,1.2,0.9,1.9c0.3,0.7,0.6,1.5,0.7,2.4c0.1,0.4,0.2,0.9,0.2,1.4c0,0.2,0.1,0.5,0.1,0.7
				c0,0.2,0,0.5,0,0.8c0,0.5-0.1,1.1-0.3,1.6c-0.2,0.5-0.4,1.1-0.8,1.5c-0.4,0.5-0.9,0.8-1.5,1c-0.6,0.2-1.2,0.2-1.7,0.1
				c-0.3-0.1-0.5-0.1-0.8-0.2L98,68.2l0,0l-0.1,0l-0.1,0c-0.1,0-0.3-0.1-0.4-0.2c-0.5-0.2-1-0.6-1.4-1c-0.4-0.4-0.7-1-0.9-1.5
				c-0.2-0.6-0.2-1.1-0.2-1.7c0-1.1,0.3-2,0.6-2.9c0.3-0.9,0.7-1.6,1.1-2.3c0.4-0.7,0.8-1.3,1.1-1.8c0.4-0.5,0.7-0.9,1-1.3
				c0.3-0.3,0.5-0.6,0.7-0.8C99.7,54.6,99.8,54.5,99.8,54.5z"/>
		</g>
		<g>
			<path class="st0" d="M95.3,45.8c0,0,0,0.1,0,0.3c0,0.2-0.1,0.5-0.2,0.9c-0.1,0.4-0.2,0.8-0.3,1.4c-0.2,0.5-0.3,1.1-0.6,1.8
				c-0.5,1.3-1.2,2.9-2,4.7c-0.4,0.9-0.8,1.8-1.3,2.8c-0.4,1-0.9,2.1-1.2,3.2c-0.4,1.1-0.7,2.3-0.8,3.6c-0.2,1.3,0,2.6,0.2,3.9
				c0.3,1.3,0.7,2.7,1.1,4c0.5,1.4,1,2.7,1.7,4.1c0.6,1.3,1.4,2.7,2.2,4c0.8,1.3,1.7,2.5,2.7,3.7c0.5,0.6,1.1,1.1,1.7,1.5
				c0.6,0.4,1.2,0.8,1.9,0.8c0.3,0,0.6,0,0.9-0.2c0.3-0.1,0.5-0.4,0.7-0.7c0.1-0.1,0.2-0.3,0.3-0.5l0.3-0.5l0.6-1.1
				c1.5-2.8,2.9-5.7,4.2-8.6c1.3-2.9,2.3-5.8,3.1-8.7c0.4-1.5,0.6-2.9,0.7-4.3c0.1-1.4,0.1-2.8-0.1-4.2c-0.1-0.7-0.3-1.3-0.5-1.9
				c-0.2-0.6-0.5-1.2-0.7-1.8c-0.6-1.1-1.2-2.2-1.8-3.2c-0.6-1-1.3-2-1.9-2.9c-0.6-0.9-1.1-1.9-1.5-2.8c-0.9-1.8-1.5-3.4-1.9-4.7
				c-0.5-1.3-0.8-2.4-1-3.1c-0.2-0.7-0.3-1.1-0.3-1.1s0.1,0.4,0.4,1.1c0.3,0.7,0.6,1.8,1.1,3.1c0.5,1.3,1.2,2.9,2.1,4.6
				c0.5,0.9,1,1.7,1.6,2.7c0.6,0.9,1.3,1.8,2,2.8c0.3,0.5,0.7,1,1,1.5c0.3,0.5,0.7,1.1,1,1.7c0.3,0.6,0.6,1.2,0.8,1.9
				c0.2,0.7,0.4,1.3,0.6,2.1c0.3,1.4,0.3,2.9,0.2,4.4c-0.1,1.5-0.3,3-0.7,4.5c-0.7,3-1.8,6-3,8.9c-1.3,2.9-2.7,5.8-4.2,8.7l-0.6,1.1
				l-0.3,0.5c-0.1,0.2-0.2,0.4-0.4,0.6c-0.3,0.4-0.6,0.7-1,0.9c-0.4,0.2-0.9,0.3-1.4,0.3c-0.5,0-0.9-0.2-1.3-0.3
				c-0.4-0.2-0.8-0.4-1.1-0.6c-0.7-0.5-1.3-1.1-1.8-1.6c-1.1-1.2-2-2.5-2.8-3.8c-0.8-1.3-1.6-2.7-2.2-4.1c-1.3-2.8-2.3-5.6-2.8-8.4
				c-0.1-0.7-0.2-1.4-0.3-2.1c0-0.7,0-1.4,0.1-2.1c0.2-1.3,0.5-2.6,0.9-3.7c0.8-2.3,1.9-4.3,2.8-6c0.9-1.7,1.6-3.3,2.2-4.6
				c0.5-1.3,0.9-2.4,1.1-3.1c0.1-0.4,0.2-0.6,0.2-0.8C95.3,45.9,95.3,45.8,95.3,45.8z"/>
		</g>
		<g>
			<path class="st0" d="M95.3,45.8c0,0,0,0.3-0.1,0.8c-0.1,0.5-0.2,1.3-0.5,2.2c-0.2,1-0.5,2.1-0.8,3.4c-0.3,1.3-0.7,2.8-1.1,4.4
				c-0.1,0.4-0.2,0.8-0.3,1.2c0,0.2-0.1,0.4-0.1,0.6c0,0.2-0.1,0.4-0.1,0.7c-0.1,0.4-0.2,0.9-0.2,1.4c0,0.2-0.1,0.5-0.1,0.7
				c0,0.2-0.1,0.5-0.1,0.7c0,0.2-0.1,0.5-0.1,0.7l0,0.2l0,0.2c0,0.1,0,0.2,0,0.3c0,0.5,0.1,0.9,0.2,1.4c0.2,0.9,0.7,1.8,1.2,2.6
				c1.2,1.6,2.9,2.8,4.8,3.3c1,0.2,2,0.3,2.9,0c1-0.2,1.8-0.7,2.6-1.5c0.8-0.8,1.4-1.6,2-2.5c0.6-0.9,1.1-1.8,1.4-2.8
				c0.3-1,0.5-2,0.5-3.1c0-1,0-2.1-0.2-3.1c-0.1-0.5-0.2-1-0.3-1.5c0-0.1-0.1-0.3-0.1-0.4l-0.1-0.4c-0.1-0.2-0.1-0.5-0.2-0.7
				c-0.3-0.9-0.6-1.9-1-2.8c-0.3-0.9-0.7-1.8-1-2.6c-0.3-0.8-0.7-1.7-0.9-2.5c-0.2-0.8-0.4-1.6-0.6-2.4c-0.2-0.8-0.3-1.5-0.5-2.1
				c-0.3-1.3-0.5-2.5-0.7-3.5c-0.2-1-0.4-1.7-0.5-2.2c-0.1-0.3-0.1-0.4-0.2-0.6c0-0.1-0.1-0.2-0.1-0.2s0,0.1,0.1,0.2
				c0,0.1,0.1,0.3,0.2,0.6c0.2,0.5,0.4,1.2,0.6,2.2c0.2,0.9,0.5,2.1,0.8,3.4c0.2,0.7,0.3,1.4,0.5,2.1c0.2,0.7,0.4,1.5,0.7,2.3
				c0.1,0.2,0.1,0.4,0.2,0.6c0,0.1,0.1,0.2,0.1,0.3c0,0.1,0.1,0.2,0.1,0.3c0.2,0.4,0.3,0.8,0.5,1.2c0.4,0.8,0.7,1.7,1.1,2.6
				c0.4,0.9,0.7,1.8,1.1,2.8c0.1,0.2,0.2,0.5,0.2,0.7l0.1,0.4c0,0.1,0.1,0.3,0.1,0.4c0.1,0.5,0.3,1,0.4,1.5c0.2,1.1,0.3,2.2,0.3,3.3
				c0,1.1-0.2,2.3-0.5,3.4c-0.3,1.1-0.9,2.1-1.5,3.1c-0.3,0.5-0.7,0.9-1,1.4c-0.2,0.2-0.4,0.4-0.6,0.6c-0.1,0.1-0.2,0.2-0.3,0.3
				l-0.1,0.1c-0.1,0.1-0.1,0.1-0.2,0.2c-0.8,0.8-1.9,1.4-3,1.7c-1.1,0.3-2.3,0.2-3.4,0c-1.1-0.3-2.1-0.8-3-1.4
				c-0.9-0.6-1.7-1.4-2.3-2.3c-0.6-0.9-1.1-1.9-1.3-2.9c-0.1-0.5-0.2-1-0.2-1.6c0-0.1,0-0.3,0-0.4l0-0.2l0-0.2
				c0-0.3,0.1-0.5,0.1-0.7c0-0.2,0.1-0.5,0.1-0.7c0-0.2,0.1-0.5,0.1-0.7c0.1-0.5,0.2-0.9,0.3-1.4c0.1-0.2,0.1-0.4,0.2-0.7
				c0.1-0.2,0.1-0.4,0.2-0.6c0.1-0.4,0.2-0.8,0.3-1.2c0.4-1.6,0.9-3.1,1.3-4.4c0.4-1.3,0.7-2.4,1-3.4c0.3-0.9,0.5-1.7,0.6-2.2
				C95.3,46.1,95.3,45.8,95.3,45.8z"/>
		</g>
		<g>
			<path class="st0" d="M68.3,73.8c0,0,0.1,0.1,0.2,0.3c0.1,0.2,0.3,0.5,0.5,0.9c0.4,0.8,1,1.9,1.9,3.2c0.4,0.6,0.9,1.3,1.5,1.9
				c0.6,0.6,1.2,1.2,1.9,1.6c0.4,0.2,0.8,0.4,1.1,0.4c0.4,0.1,0.8,0,1.2-0.1c0.4-0.1,0.8-0.3,1.1-0.6c0.1-0.1,0.2-0.1,0.3-0.2
				l0.1-0.1l0,0l0,0c0,0,0,0,0,0l0,0l0.1-0.1c0.1-0.1,0.3-0.3,0.4-0.5c0.5-0.7,0.8-1.5,0.5-2.3c-0.1-0.4-0.3-0.8-0.6-1.1
				c-0.3-0.3-0.6-0.6-0.9-0.9c-0.7-0.5-1.5-0.9-2.2-1.2c-0.8-0.3-1.5-0.5-2.2-0.7c-0.7-0.2-1.4-0.3-2-0.4c-0.6-0.1-1.1-0.2-1.5-0.2
				c-0.4,0-0.8,0-1,0C68.5,73.8,68.3,73.8,68.3,73.8s0.1,0,0.3-0.1c0.2,0,0.6-0.1,1-0.1c0.4,0,1-0.1,1.6-0.1c0.6,0,1.3,0.1,2,0.2
				c0.7,0.1,1.6,0.3,2.4,0.5c0.4,0.1,0.8,0.3,1.3,0.5c0.2,0.1,0.4,0.2,0.6,0.3c0.2,0.1,0.4,0.3,0.6,0.4c0.4,0.3,0.8,0.6,1.2,1.1
				c0.4,0.4,0.7,0.9,0.8,1.5c0.2,0.6,0.2,1.2,0.1,1.9c-0.1,0.6-0.4,1.2-0.8,1.6c-0.2,0.2-0.4,0.4-0.6,0.6l-0.1,0.1l0,0l0,0l-0.1,0.1
				c-0.1,0.1-0.2,0.2-0.3,0.3c-0.5,0.3-1,0.6-1.5,0.7c-0.6,0.1-1.1,0.2-1.7,0c-0.5-0.1-1-0.3-1.5-0.6c-0.9-0.6-1.5-1.3-2.1-2
				c-0.6-0.7-1-1.5-1.4-2.1c-0.4-0.7-0.7-1.3-0.9-1.9c-0.2-0.6-0.4-1.1-0.6-1.5c-0.1-0.4-0.2-0.8-0.3-1
				C68.4,73.9,68.3,73.8,68.3,73.8z"/>
		</g>
		<g>
			<path class="st0" d="M59,73.5c0,0,0.1,0.1,0.2,0.2c0.1,0.1,0.4,0.3,0.6,0.6c0.3,0.3,0.6,0.6,1,1c0.4,0.4,0.8,0.9,1.2,1.4
				c0.9,1.1,1.8,2.5,2.9,4.2c0.5,0.8,1.1,1.7,1.7,2.6c0.6,0.9,1.3,1.8,2,2.7c0.8,0.9,1.6,1.8,2.6,2.5c1,0.8,2.1,1.3,3.4,1.7
				c1.2,0.4,2.6,0.7,3.9,1c1.4,0.2,2.8,0.4,4.2,0.5c1.4,0.1,2.9,0.1,4.4,0c1.5-0.1,3-0.3,4.4-0.7c0.7-0.2,1.4-0.4,2.1-0.8
				c0.6-0.3,1.2-0.8,1.6-1.3c0.2-0.3,0.3-0.6,0.3-0.9c0-0.3-0.1-0.6-0.2-1c-0.1-0.2-0.1-0.3-0.2-0.5l-0.3-0.5l-0.6-1
				c-1.6-2.8-3.2-5.5-5-8.1c-1.8-2.6-3.6-5-5.7-7.1c-1-1-2.1-2-3.2-2.8c-1.1-0.8-2.3-1.5-3.5-1.9c-0.6-0.2-1.2-0.4-1.8-0.5
				c-0.6-0.1-1.2-0.2-1.9-0.2c-1.2-0.1-2.4,0-3.6,0.1c-1.2,0.1-2.3,0.2-3.3,0.3c-1.1,0.1-2.1,0-3,0c-1.9-0.1-3.5-0.4-4.9-0.6
				c-1.3-0.2-2.4-0.5-3.1-0.7c-0.7-0.2-1.1-0.3-1.1-0.3s0.4,0.1,1.1,0.2c0.7,0.1,1.8,0.3,3.1,0.5c1.3,0.2,3,0.4,4.9,0.4
				c0.9,0,1.9,0,3-0.1c1.1-0.1,2.2-0.2,3.3-0.4c0.6-0.1,1.2-0.1,1.8-0.2c0.6,0,1.2,0,1.9,0c0.6,0,1.3,0.1,1.9,0.2
				c0.7,0.1,1.3,0.3,2,0.5c1.3,0.5,2.6,1.2,3.7,2c1.2,0.8,2.3,1.8,3.4,2.9c2.1,2.1,4.1,4.6,5.8,7.2c1.8,2.6,3.4,5.4,5.1,8.2l0.6,1
				l0.3,0.5c0.1,0.2,0.2,0.4,0.3,0.6c0.2,0.4,0.3,0.9,0.3,1.4c0,0.5-0.2,1-0.4,1.4c-0.2,0.4-0.6,0.7-0.9,1c-0.3,0.3-0.7,0.5-1.1,0.7
				c-0.7,0.4-1.5,0.6-2.3,0.8c-1.5,0.4-3.1,0.6-4.6,0.7c-1.5,0.1-3,0.1-4.5,0c-2.9-0.2-5.8-0.7-8.3-1.6c-0.6-0.2-1.3-0.5-1.9-0.8
				c-0.6-0.3-1.2-0.7-1.7-1.1c-1-0.8-1.9-1.8-2.6-2.7c-1.5-1.9-2.6-3.8-3.6-5.5c-1-1.7-1.9-3.1-2.7-4.3c-0.8-1.1-1.5-2-2-2.5
				c-0.3-0.3-0.5-0.5-0.6-0.6C59.1,73.6,59,73.5,59,73.5z"/>
		</g>
		<g>
			<path class="st0" d="M59,73.5c0,0,0.2,0.2,0.6,0.5c0.4,0.3,0.9,0.9,1.6,1.5c0.7,0.7,1.5,1.5,2.4,2.5c0.9,1,2,2.1,3.1,3.2
				c0.3,0.3,0.6,0.6,0.9,0.9c0.2,0.1,0.3,0.3,0.5,0.4c0.2,0.1,0.3,0.3,0.5,0.4c0.3,0.3,0.7,0.6,1,0.9c0.2,0.1,0.3,0.3,0.5,0.4
				c0.2,0.1,0.4,0.3,0.5,0.4c0.2,0.1,0.4,0.3,0.6,0.4l0.1,0.1l0.1,0.1c0.1,0.1,0.2,0.1,0.3,0.2c0.4,0.2,0.8,0.4,1.3,0.5
				c0.9,0.2,1.8,0.3,2.8,0.2c1.9-0.2,3.8-1.2,5.1-2.7c0.7-0.8,1.2-1.7,1.5-2.7c0.3-1,0.3-2,0.1-3.1c-0.2-1.1-0.6-2.1-1-3.1
				c-0.4-1-1-1.9-1.7-2.7c-0.7-0.8-1.4-1.5-2.3-2c-0.8-0.6-1.7-1-2.7-1.3c-0.5-0.2-0.9-0.3-1.4-0.5c-0.1,0-0.2-0.1-0.3-0.1L72.8,68
				c-0.2-0.1-0.5-0.1-0.7-0.2c-0.9-0.2-1.9-0.4-2.8-0.5c-0.9-0.1-1.8-0.3-2.7-0.4c-0.9-0.1-1.7-0.2-2.5-0.4
				c-0.8-0.2-1.5-0.4-2.3-0.6c-0.7-0.2-1.4-0.4-2-0.7c-1.2-0.4-2.3-0.8-3.2-1.1c-0.9-0.3-1.6-0.5-2.1-0.6c-0.2-0.1-0.4-0.1-0.6-0.1
				c-0.1,0-0.2,0-0.2,0s0.1,0,0.2,0c0.1,0,0.3,0.1,0.6,0.1c0.5,0.1,1.2,0.3,2.1,0.5c0.9,0.2,2,0.6,3.3,0.9c0.6,0.2,1.3,0.4,2,0.6
				c0.7,0.2,1.5,0.4,2.2,0.5c0.2,0,0.4,0.1,0.6,0.1c0.1,0,0.2,0,0.3,0c0.1,0,0.2,0,0.3,0c0.4,0,0.8,0.1,1.3,0.1
				c0.9,0.1,1.8,0.2,2.7,0.3c0.9,0.1,1.9,0.2,2.8,0.4c0.2,0,0.5,0.1,0.7,0.2l0.4,0.1c0.1,0,0.2,0.1,0.4,0.1c0.5,0.1,1,0.3,1.5,0.4
				c1,0.3,1.9,0.8,2.9,1.4c0.9,0.6,1.8,1.3,2.5,2.2c0.7,0.9,1.3,1.9,1.8,2.9c0.2,0.5,0.4,1.1,0.6,1.6c0.1,0.3,0.2,0.6,0.2,0.8
				c0,0.1,0.1,0.3,0.1,0.4l0.1,0.2c0,0.1,0,0.1,0.1,0.2c0.3,1.2,0.2,2.4-0.1,3.6c-0.3,1.2-1,2.2-1.7,3c-0.8,0.8-1.7,1.5-2.7,2
				c-1,0.5-2,0.8-3.1,0.9c-1,0.1-2.1,0-3.1-0.3c-0.5-0.2-1-0.4-1.4-0.6c-0.1-0.1-0.2-0.1-0.3-0.2l-0.2-0.1l-0.1-0.1
				c-0.2-0.2-0.4-0.3-0.6-0.5c-0.2-0.1-0.4-0.3-0.5-0.5c-0.2-0.2-0.4-0.3-0.5-0.5c-0.3-0.3-0.7-0.6-1-0.9c-0.2-0.2-0.3-0.3-0.5-0.5
				c-0.2-0.2-0.3-0.3-0.5-0.5c-0.3-0.3-0.6-0.6-0.9-0.9c-1.1-1.2-2.1-2.4-3-3.4c-0.9-1-1.7-1.9-2.3-2.6c-0.6-0.7-1.2-1.3-1.5-1.6
				C59.2,73.7,59,73.5,59,73.5z"/>
		</g>
		<g>
			<path class="st0" d="M68.6,111.9c0,0,0.1,0,0.4,0c0.2,0,0.6,0,1,0c0.9,0,2.1,0,3.5-0.1c0.7-0.1,1.5-0.2,2.3-0.4
				c0.8-0.2,1.6-0.5,2.3-0.9c0.4-0.2,0.7-0.5,0.9-0.8c0.2-0.3,0.4-0.7,0.5-1.1c0.1-0.4,0.1-0.8,0.1-1.3c0-0.1,0-0.2,0-0.3l0-0.1l0,0
				l0,0c0,0,0,0,0,0l0,0l0-0.2c0-0.2-0.1-0.4-0.2-0.6c-0.3-0.8-0.9-1.4-1.6-1.6c-0.4-0.1-0.8-0.1-1.2,0c-0.4,0.1-0.8,0.2-1.2,0.4
				c-0.8,0.4-1.5,0.9-2.1,1.4c-0.6,0.5-1.2,1.1-1.7,1.7c-0.5,0.6-0.9,1.1-1.3,1.6c-0.4,0.5-0.7,0.9-0.9,1.3
				c-0.2,0.4-0.4,0.7-0.5,0.9C68.6,111.8,68.6,111.9,68.6,111.9s0-0.1,0.1-0.4c0.1-0.2,0.2-0.6,0.4-1c0.2-0.4,0.4-0.9,0.7-1.5
				c0.3-0.5,0.7-1.2,1.2-1.8c0.5-0.6,1-1.3,1.6-1.9c0.3-0.3,0.7-0.6,1-0.9c0.2-0.1,0.4-0.3,0.6-0.4c0.2-0.1,0.4-0.3,0.6-0.4
				c0.5-0.2,0.9-0.4,1.5-0.6c0.5-0.1,1.1-0.1,1.7,0c0.6,0.1,1.1,0.4,1.6,0.9c0.4,0.4,0.7,1,1,1.5c0.1,0.3,0.2,0.6,0.2,0.9l0,0.2l0,0
				l0,0.1l0,0.1c0,0.1,0,0.3,0,0.4c0,0.6,0,1.2-0.2,1.7c-0.2,0.6-0.4,1.1-0.8,1.5c-0.4,0.4-0.8,0.8-1.3,1c-0.9,0.5-1.8,0.7-2.7,0.9
				c-0.9,0.1-1.7,0.2-2.5,0.2c-0.8,0-1.4-0.1-2-0.1c-0.6-0.1-1.1-0.2-1.6-0.2c-0.4-0.1-0.8-0.2-1-0.2
				C68.7,112,68.6,111.9,68.6,111.9z"/>
		</g>
		<g>
			<path class="st0" d="M63.7,120.3c0,0,0.1,0,0.3-0.1c0.2-0.1,0.4-0.2,0.8-0.3c0.3-0.1,0.8-0.2,1.3-0.4c0.5-0.1,1.1-0.2,1.8-0.4
				c1.3-0.2,3-0.4,4.9-0.5c0.9-0.1,1.9-0.1,3-0.2c1.1-0.1,2.1-0.2,3.3-0.5c1.1-0.2,2.3-0.6,3.4-1.1c1.1-0.5,2.1-1.3,3.1-2.2
				c1-0.9,1.9-1.9,2.8-3.1c0.9-1.1,1.7-2.3,2.5-3.6c0.8-1.3,1.5-2.6,2.2-4c0.6-1.4,1.2-2.8,1.6-4.3c0.2-0.7,0.4-1.5,0.4-2.3
				c0-0.7,0-1.5-0.3-2.1c-0.1-0.3-0.3-0.5-0.6-0.7c-0.3-0.2-0.6-0.3-0.9-0.3c-0.2,0-0.3,0-0.5,0l-0.6,0l-1.2,0
				c-3.1,0.1-6.2,0.2-9.2,0.5c-3,0.3-6,0.8-8.7,1.6c-1.4,0.4-2.7,0.9-3.9,1.5c-1.2,0.6-2.4,1.3-3.4,2.2c-0.5,0.4-0.9,0.9-1.3,1.4
				c-0.4,0.5-0.8,1-1.1,1.6c-0.7,1.1-1.2,2.2-1.7,3.3c-0.5,1.1-1,2.2-1.5,3.1c-0.5,1-1,1.9-1.5,2.7c-1,1.7-2.1,3-2.9,4.1
				c-0.9,1.1-1.6,1.9-2.1,2.5c-0.5,0.6-0.8,0.8-0.8,0.8s0.3-0.3,0.7-0.9c0.5-0.6,1.1-1.5,2-2.6c0.8-1.1,1.8-2.5,2.8-4.2
				c0.5-0.8,0.9-1.8,1.4-2.8c0.5-1,0.9-2.1,1.4-3.2c0.2-0.6,0.5-1.1,0.8-1.7c0.3-0.6,0.6-1.1,0.9-1.7c0.3-0.6,0.7-1.1,1.1-1.7
				c0.4-0.5,0.9-1.1,1.4-1.5c1-0.9,2.2-1.7,3.5-2.4c1.3-0.7,2.7-1.2,4.1-1.6c2.8-0.9,5.8-1.4,8.9-1.7c3.1-0.3,6.2-0.4,9.3-0.5l1.2,0
				l0.6,0c0.2,0,0.4,0,0.6,0c0.4,0.1,0.9,0.2,1.3,0.5c0.4,0.3,0.7,0.7,1,1.1c0.2,0.4,0.3,0.9,0.4,1.3c0.1,0.4,0.1,0.9,0,1.3
				c-0.1,0.9-0.2,1.7-0.5,2.5c-0.4,1.6-1.1,3.1-1.7,4.5c-0.7,1.4-1.5,2.8-2.3,4c-1.6,2.6-3.5,4.9-5.5,6.7c-0.5,0.5-1,0.9-1.6,1.3
				c-0.6,0.4-1.1,0.7-1.8,1c-1.2,0.5-2.4,0.8-3.6,1c-2.3,0.4-4.5,0.4-6.4,0.5c-1.9,0.1-3.5,0.1-4.9,0.3c-1.3,0.2-2.4,0.4-3.1,0.6
				c-0.4,0.1-0.6,0.2-0.8,0.2C63.8,120.2,63.7,120.3,63.7,120.3z"/>
		</g>
		<g>
			<path class="st0" d="M63.7,120.3c0,0,0.3-0.1,0.7-0.3c0.5-0.2,1.2-0.4,2.1-0.7c0.9-0.3,2-0.6,3.3-1c1.3-0.4,2.7-0.7,4.2-1.2
				c0.4-0.1,0.8-0.2,1.2-0.4c0.2-0.1,0.4-0.1,0.6-0.2c0.2-0.1,0.4-0.1,0.6-0.2c0.4-0.1,0.8-0.3,1.2-0.5c0.2-0.1,0.4-0.2,0.6-0.3
				c0.2-0.1,0.4-0.2,0.6-0.3c0.2-0.1,0.4-0.2,0.6-0.3l0.2-0.1l0.1-0.1c0.1-0.1,0.2-0.1,0.3-0.2c0.4-0.3,0.7-0.6,1.1-0.9
				c0.6-0.7,1.2-1.5,1.5-2.4c0.7-1.8,0.9-4,0.3-6c-0.3-1-0.8-1.9-1.5-2.7c-0.7-0.8-1.5-1.3-2.5-1.6c-1-0.3-2-0.5-3-0.6
				c-1-0.1-2,0-3,0.2c-1,0.2-1.9,0.6-2.8,1c-0.9,0.5-1.7,1.1-2.4,1.7c-0.4,0.3-0.7,0.7-1.1,1c-0.1,0.1-0.2,0.2-0.3,0.3L66,105
				c-0.2,0.2-0.3,0.4-0.5,0.6c-0.6,0.7-1.2,1.5-1.8,2.3c-0.6,0.8-1.1,1.5-1.6,2.2c-0.5,0.7-1,1.4-1.6,2.1c-0.5,0.6-1.1,1.2-1.6,1.7
				c-0.5,0.5-1,1-1.5,1.5c-1,0.9-1.8,1.7-2.5,2.4c-0.7,0.7-1.2,1.2-1.6,1.6c-0.2,0.2-0.3,0.3-0.4,0.4c-0.1,0.1-0.1,0.2-0.1,0.2
				s0-0.1,0.1-0.2c0.1-0.1,0.2-0.3,0.4-0.5c0.3-0.4,0.8-1,1.5-1.7c0.7-0.7,1.5-1.5,2.4-2.5c0.5-0.5,1-1,1.5-1.5
				c0.5-0.5,1-1.1,1.5-1.8c0.1-0.2,0.3-0.3,0.4-0.5c0.1-0.1,0.1-0.2,0.2-0.3c0.1-0.1,0.1-0.2,0.2-0.3c0.2-0.4,0.5-0.7,0.7-1.1
				c0.5-0.7,1-1.5,1.6-2.3c0.5-0.8,1.1-1.6,1.8-2.4c0.2-0.2,0.3-0.4,0.5-0.6l0.2-0.3c0.1-0.1,0.2-0.2,0.3-0.3
				c0.3-0.4,0.7-0.8,1.1-1.1c0.8-0.7,1.6-1.4,2.6-1.9c0.9-0.5,2-1,3.1-1.2c1.1-0.2,2.2-0.3,3.3-0.2c0.6,0,1.1,0.1,1.6,0.2
				c0.3,0.1,0.5,0.1,0.8,0.2c0.1,0,0.3,0.1,0.4,0.1l0.2,0.1c0.1,0,0.1,0,0.2,0.1c1.1,0.4,2.1,1,2.9,1.9c0.8,0.9,1.3,2,1.7,3.1
				c0.3,1.1,0.4,2.3,0.3,3.4c-0.1,1.1-0.3,2.2-0.8,3.2c-0.4,1-1,1.9-1.8,2.7c-0.4,0.4-0.8,0.7-1.2,1c-0.1,0.1-0.2,0.1-0.3,0.2
				l-0.2,0.1l-0.2,0.1c-0.2,0.1-0.4,0.2-0.7,0.3c-0.2,0.1-0.4,0.2-0.6,0.3c-0.2,0.1-0.4,0.2-0.6,0.2c-0.4,0.1-0.8,0.3-1.3,0.4
				c-0.2,0.1-0.4,0.1-0.6,0.2c-0.2,0.1-0.4,0.1-0.6,0.2c-0.4,0.1-0.8,0.2-1.2,0.3c-1.6,0.4-3,0.7-4.3,1c-1.3,0.3-2.4,0.6-3.3,0.8
				c-0.9,0.2-1.6,0.4-2.1,0.6C63.9,120.2,63.7,120.3,63.7,120.3z"/>
		</g>
		<g>
			<path class="st0" d="M100.2,130.8c0,0,0.1-0.1,0.2-0.3c0.1-0.2,0.3-0.5,0.5-0.9c0.4-0.8,1.1-1.9,1.7-3.3c0.3-0.7,0.6-1.5,0.8-2.3
				c0.2-0.8,0.4-1.7,0.4-2.6c0-0.4-0.1-0.9-0.2-1.2c-0.1-0.4-0.4-0.7-0.6-1c-0.3-0.3-0.6-0.5-1-0.7c-0.1,0-0.2-0.1-0.3-0.1l-0.1,0
				l0,0l0,0c0,0,0,0,0,0l0,0l-0.2-0.1c-0.2-0.1-0.4-0.1-0.6-0.1c-0.8-0.1-1.6,0.1-2.2,0.7c-0.3,0.3-0.5,0.7-0.6,1.1
				c-0.1,0.4-0.2,0.8-0.3,1.3c-0.1,0.9,0,1.8,0.1,2.7c0.1,0.8,0.3,1.7,0.5,2.4c0.2,0.7,0.4,1.4,0.6,2c0.2,0.6,0.4,1.1,0.6,1.5
				c0.2,0.4,0.4,0.7,0.5,0.9C100.2,130.7,100.2,130.8,100.2,130.8s-0.1-0.1-0.2-0.3c-0.2-0.2-0.4-0.5-0.6-0.8
				c-0.3-0.4-0.5-0.8-0.8-1.4c-0.3-0.6-0.6-1.2-0.9-1.9c-0.3-0.7-0.6-1.5-0.7-2.4c-0.1-0.4-0.2-0.9-0.2-1.4c0-0.2-0.1-0.5-0.1-0.7
				c0-0.2,0-0.5,0-0.8c0-0.5,0.1-1.1,0.3-1.6c0.2-0.5,0.4-1.1,0.8-1.5c0.4-0.5,0.9-0.8,1.5-1c0.6-0.2,1.2-0.2,1.7-0.1
				c0.3,0,0.5,0.1,0.8,0.2l0.2,0.1l0,0l0.1,0l0.1,0c0.1,0,0.3,0.1,0.4,0.2c0.5,0.2,1,0.6,1.4,1c0.4,0.4,0.7,1,0.9,1.5
				c0.2,0.6,0.2,1.1,0.2,1.7c0,1.1-0.3,2-0.6,2.9c-0.3,0.9-0.7,1.6-1.1,2.3c-0.4,0.7-0.8,1.3-1.1,1.8c-0.4,0.5-0.7,0.9-1,1.3
				c-0.3,0.3-0.5,0.6-0.7,0.8C100.3,130.7,100.2,130.8,100.2,130.8z"/>
		</g>
		<g>
			<path class="st0" d="M104.7,139.4c0,0,0-0.1,0-0.3c0-0.2,0.1-0.5,0.2-0.9c0.1-0.4,0.2-0.8,0.3-1.4c0.2-0.5,0.3-1.1,0.6-1.8
				c0.5-1.3,1.2-2.9,2-4.7c0.4-0.9,0.8-1.8,1.3-2.8c0.4-1,0.9-2.1,1.2-3.2c0.4-1.1,0.7-2.3,0.8-3.6c0.2-1.3,0-2.6-0.2-3.9
				c-0.3-1.3-0.7-2.7-1.1-4c-0.5-1.4-1.1-2.7-1.7-4.1c-0.6-1.3-1.4-2.7-2.2-4c-0.8-1.3-1.7-2.5-2.7-3.7c-0.5-0.6-1.1-1.1-1.7-1.5
				c-0.6-0.4-1.2-0.8-1.9-0.8c-0.3,0-0.6,0.1-0.9,0.2c-0.3,0.1-0.5,0.4-0.7,0.7c-0.1,0.1-0.2,0.3-0.3,0.5l-0.3,0.5l-0.6,1.1
				c-1.5,2.8-2.9,5.7-4.2,8.6c-1.3,2.9-2.3,5.8-3.1,8.7c-0.4,1.5-0.6,2.9-0.7,4.3c-0.1,1.4-0.1,2.8,0.1,4.2c0.1,0.7,0.3,1.3,0.5,1.9
				c0.2,0.6,0.5,1.2,0.7,1.8c0.6,1.1,1.2,2.2,1.8,3.2c0.6,1,1.3,2,1.9,2.9c0.6,0.9,1.1,1.9,1.5,2.8c0.9,1.8,1.5,3.4,1.9,4.7
				c0.5,1.3,0.8,2.4,1,3.1c0.2,0.7,0.3,1.1,0.3,1.1s-0.1-0.4-0.4-1.1c-0.3-0.7-0.6-1.8-1.1-3.1c-0.5-1.3-1.2-2.9-2.1-4.6
				c-0.5-0.9-1-1.7-1.6-2.7c-0.6-0.9-1.3-1.8-2-2.8c-0.3-0.5-0.7-1-1-1.5c-0.3-0.5-0.7-1.1-1-1.7c-0.3-0.6-0.6-1.2-0.8-1.9
				c-0.2-0.7-0.4-1.3-0.6-2.1c-0.3-1.4-0.3-2.9-0.2-4.4c0.1-1.5,0.4-3,0.7-4.5c0.7-3,1.8-6,3-8.9c1.3-2.9,2.7-5.8,4.2-8.7l0.6-1.1
				l0.3-0.5c0.1-0.2,0.2-0.4,0.4-0.6c0.3-0.4,0.6-0.7,1-0.9c0.4-0.2,0.9-0.3,1.4-0.3c0.5,0,0.9,0.2,1.3,0.3c0.4,0.2,0.8,0.4,1.1,0.6
				c0.7,0.5,1.3,1,1.8,1.6c1.1,1.2,2,2.5,2.8,3.8c0.8,1.3,1.6,2.7,2.2,4.1c1.3,2.8,2.3,5.6,2.8,8.4c0.1,0.7,0.2,1.4,0.3,2.1
				c0,0.7,0,1.4-0.1,2.1c-0.2,1.3-0.5,2.6-0.9,3.7c-0.8,2.3-1.9,4.3-2.8,6c-0.9,1.7-1.6,3.3-2.2,4.6c-0.5,1.3-0.9,2.4-1.1,3.1
				c-0.1,0.4-0.2,0.6-0.2,0.8C104.7,139.3,104.7,139.4,104.7,139.4z"/>
		</g>
		<g>
			<path class="st0" d="M104.7,139.4c0,0,0-0.3,0.1-0.8c0.1-0.5,0.2-1.3,0.5-2.2c0.2-1,0.5-2.1,0.8-3.4c0.3-1.3,0.7-2.8,1.1-4.4
				c0.1-0.4,0.2-0.8,0.3-1.2c0-0.2,0.1-0.4,0.1-0.6c0-0.2,0.1-0.4,0.1-0.7c0.1-0.4,0.2-0.9,0.2-1.3c0-0.2,0.1-0.5,0.1-0.7
				c0-0.2,0.1-0.5,0.1-0.7c0-0.2,0.1-0.5,0.1-0.7l0-0.2v-0.2c0-0.1,0-0.2,0-0.3c0-0.5-0.1-0.9-0.2-1.4c-0.2-0.9-0.7-1.8-1.3-2.6
				c-1.2-1.6-2.9-2.8-4.8-3.3c-1-0.2-2-0.3-2.9,0c-1,0.2-1.8,0.7-2.6,1.5c-0.7,0.8-1.4,1.6-2,2.5c-0.6,0.9-1.1,1.8-1.4,2.8
				c-0.3,1-0.5,2-0.5,3.1c0,1,0,2.1,0.2,3.1c0.1,0.5,0.2,1,0.3,1.5c0,0.1,0.1,0.3,0.1,0.4l0.1,0.4c0.1,0.2,0.1,0.5,0.2,0.7
				c0.3,0.9,0.6,1.9,1,2.8c0.3,0.9,0.7,1.8,1,2.6c0.3,0.8,0.7,1.7,0.9,2.5c0.3,0.8,0.4,1.6,0.6,2.4c0.2,0.7,0.3,1.5,0.5,2.1
				c0.3,1.3,0.5,2.5,0.7,3.5c0.2,1,0.4,1.7,0.5,2.2c0.1,0.3,0.1,0.4,0.2,0.6c0,0.1,0.1,0.2,0.1,0.2s0-0.1-0.1-0.2
				c0-0.1-0.1-0.3-0.2-0.6c-0.2-0.5-0.4-1.2-0.6-2.2c-0.2-0.9-0.5-2.1-0.8-3.4c-0.2-0.7-0.3-1.4-0.5-2.1c-0.2-0.7-0.4-1.5-0.7-2.3
				c-0.1-0.2-0.1-0.4-0.2-0.6c0-0.1-0.1-0.2-0.1-0.3c0-0.1-0.1-0.2-0.1-0.3c-0.2-0.4-0.3-0.8-0.5-1.2c-0.4-0.8-0.7-1.7-1.1-2.6
				c-0.4-0.9-0.7-1.8-1.1-2.8c-0.1-0.2-0.2-0.5-0.2-0.7l-0.1-0.4c0-0.1-0.1-0.3-0.1-0.4c-0.1-0.5-0.3-1-0.4-1.6
				c-0.2-1.1-0.3-2.2-0.3-3.3c0-1.1,0.2-2.3,0.5-3.4c0.3-1.1,0.9-2.1,1.5-3.1c0.3-0.5,0.7-0.9,1-1.4c0.2-0.2,0.4-0.4,0.6-0.6
				c0.1-0.1,0.2-0.2,0.3-0.3l0.1-0.1c0.1-0.1,0.1-0.1,0.2-0.2c0.8-0.8,1.9-1.4,3-1.7c1.1-0.3,2.3-0.2,3.4,0c1.1,0.3,2.1,0.8,3,1.4
				c0.9,0.6,1.7,1.4,2.3,2.3c0.6,0.9,1.1,1.9,1.3,2.9c0.1,0.5,0.2,1,0.2,1.6c0,0.1,0,0.3,0,0.4l0,0.2l0,0.2c0,0.3-0.1,0.5-0.1,0.7
				c0,0.2-0.1,0.5-0.1,0.7s-0.1,0.5-0.1,0.7c-0.1,0.5-0.2,0.9-0.3,1.4c-0.1,0.2-0.1,0.4-0.2,0.7c-0.1,0.2-0.1,0.4-0.2,0.6
				c-0.1,0.4-0.2,0.8-0.3,1.2c-0.4,1.6-0.9,3.1-1.3,4.4c-0.4,1.3-0.7,2.4-1,3.4c-0.3,0.9-0.5,1.7-0.6,2.2
				C104.7,139.2,104.7,139.4,104.7,139.4z"/>
		</g>
		<g>
			<path class="st0" d="M131.7,111.5c0,0-0.1-0.1-0.2-0.3c-0.1-0.2-0.3-0.5-0.5-0.9c-0.4-0.8-1-1.9-1.9-3.2
				c-0.4-0.6-0.9-1.3-1.5-1.9c-0.6-0.6-1.2-1.2-1.9-1.6c-0.4-0.2-0.8-0.4-1.1-0.4c-0.4-0.1-0.8,0-1.2,0.1c-0.4,0.1-0.8,0.3-1.1,0.6
				c-0.1,0.1-0.2,0.1-0.3,0.2L122,104l0,0l0,0c0,0,0,0,0,0l0,0l-0.1,0.1c-0.1,0.1-0.3,0.3-0.4,0.5c-0.5,0.7-0.8,1.5-0.5,2.3
				c0.1,0.4,0.3,0.8,0.6,1.1c0.3,0.3,0.6,0.6,0.9,0.9c0.7,0.5,1.5,0.9,2.3,1.2c0.8,0.3,1.5,0.5,2.2,0.7c0.7,0.2,1.4,0.3,2,0.4
				c0.6,0.1,1.1,0.2,1.5,0.2c0.4,0,0.8,0,1,0C131.5,111.5,131.7,111.5,131.7,111.5s-0.1,0-0.3,0.1c-0.2,0-0.6,0.1-1,0.1
				c-0.4,0-1,0.1-1.6,0.1c-0.6,0-1.3-0.1-2-0.2c-0.7-0.1-1.6-0.3-2.4-0.5c-0.4-0.1-0.8-0.3-1.3-0.5c-0.2-0.1-0.4-0.2-0.6-0.3
				c-0.2-0.1-0.5-0.3-0.6-0.4c-0.4-0.3-0.8-0.6-1.2-1.1c-0.4-0.4-0.7-0.9-0.8-1.5c-0.2-0.6-0.2-1.2-0.1-1.9c0.1-0.6,0.4-1.2,0.8-1.6
				c0.2-0.2,0.4-0.4,0.6-0.6l0.1-0.1l0,0l0.1,0l0.1-0.1c0.1-0.1,0.2-0.2,0.3-0.3c0.5-0.3,1-0.6,1.5-0.7c0.6-0.1,1.1-0.2,1.7,0
				c0.5,0.1,1,0.3,1.5,0.6c0.9,0.6,1.5,1.3,2.1,2c0.6,0.7,1,1.5,1.4,2.1c0.4,0.7,0.7,1.3,0.9,1.9c0.2,0.6,0.4,1.1,0.6,1.5
				c0.2,0.4,0.2,0.8,0.3,1C131.6,111.4,131.7,111.5,131.7,111.5z"/>
		</g>
		<g>
			<path class="st0" d="M141,111.8c0,0-0.1-0.1-0.2-0.2c-0.1-0.1-0.4-0.3-0.6-0.6c-0.3-0.3-0.6-0.6-1-1c-0.4-0.4-0.8-0.9-1.2-1.4
				c-0.9-1.1-1.8-2.5-2.9-4.2c-0.5-0.8-1.1-1.7-1.7-2.6c-0.6-0.9-1.3-1.8-2-2.7c-0.8-0.9-1.6-1.8-2.6-2.5c-1-0.8-2.1-1.3-3.3-1.7
				c-1.2-0.4-2.6-0.7-3.9-1c-1.4-0.2-2.8-0.4-4.2-0.5c-1.4-0.1-2.9-0.1-4.4,0c-1.5,0.1-3,0.3-4.4,0.7c-0.7,0.2-1.4,0.4-2.1,0.8
				c-0.6,0.3-1.2,0.8-1.6,1.3c-0.2,0.3-0.3,0.6-0.3,0.9c0,0.3,0.1,0.6,0.2,1c0.1,0.2,0.1,0.3,0.2,0.5l0.3,0.5l0.6,1
				c1.6,2.8,3.2,5.5,5,8.1c1.8,2.6,3.6,5,5.7,7.1c1,1,2.1,2,3.2,2.8c1.1,0.8,2.3,1.5,3.5,1.9c0.6,0.2,1.2,0.4,1.8,0.5
				c0.6,0.1,1.2,0.2,1.8,0.2c1.2,0.1,2.4,0,3.6-0.1c1.2-0.1,2.3-0.2,3.3-0.3c1.1-0.1,2.1,0,3,0c1.9,0.1,3.5,0.4,4.9,0.6
				c1.3,0.2,2.4,0.5,3.1,0.7c0.7,0.2,1.1,0.3,1.1,0.3s-0.4-0.1-1.1-0.2c-0.7-0.1-1.8-0.3-3.1-0.5c-1.3-0.2-3-0.4-4.9-0.4
				c-0.9,0-1.9,0-3,0.1c-1,0.1-2.1,0.2-3.3,0.4c-0.6,0.1-1.2,0.1-1.8,0.2c-0.6,0-1.2,0-1.9,0c-0.6,0-1.3-0.1-1.9-0.2
				c-0.7-0.1-1.3-0.3-2-0.5c-1.3-0.5-2.6-1.2-3.7-2c-1.2-0.8-2.3-1.8-3.4-2.9c-2.1-2.1-4.1-4.6-5.8-7.2c-1.8-2.6-3.4-5.4-5.1-8.2
				l-0.6-1l-0.3-0.5c-0.1-0.2-0.2-0.4-0.3-0.6c-0.2-0.4-0.3-0.9-0.3-1.4c0-0.5,0.2-1,0.4-1.4c0.2-0.4,0.6-0.7,0.9-1
				c0.3-0.3,0.7-0.5,1.1-0.7c0.7-0.4,1.5-0.6,2.3-0.8c1.5-0.4,3.1-0.6,4.6-0.7c1.5-0.1,3-0.1,4.5,0c2.9,0.2,5.8,0.7,8.3,1.6
				c0.6,0.2,1.3,0.5,1.9,0.8c0.6,0.3,1.2,0.7,1.7,1.1c1,0.8,1.9,1.8,2.6,2.7c1.5,1.9,2.6,3.8,3.6,5.5c1,1.7,1.9,3.1,2.7,4.3
				c0.8,1.1,1.5,2,2,2.5c0.3,0.3,0.5,0.5,0.6,0.6C141,111.7,141,111.8,141,111.8z"/>
		</g>
		<g>
			<path class="st0" d="M141,111.8c0,0-0.2-0.2-0.6-0.5c-0.4-0.3-0.9-0.9-1.6-1.5c-0.7-0.7-1.5-1.5-2.4-2.5c-0.9-1-2-2.1-3.1-3.2
				c-0.3-0.3-0.6-0.6-0.9-0.9c-0.2-0.1-0.3-0.3-0.5-0.5c-0.2-0.1-0.3-0.3-0.5-0.4c-0.3-0.3-0.7-0.6-1-0.9c-0.2-0.1-0.3-0.3-0.5-0.4
				c-0.2-0.1-0.4-0.3-0.5-0.4c-0.2-0.1-0.4-0.3-0.6-0.4l-0.1-0.1l-0.1-0.1c-0.1-0.1-0.2-0.1-0.3-0.2c-0.4-0.2-0.8-0.4-1.3-0.5
				c-0.9-0.2-1.8-0.3-2.8-0.2c-1.9,0.3-3.8,1.2-5.1,2.7c-0.7,0.8-1.2,1.7-1.5,2.7c-0.3,1-0.3,2-0.1,3.1c0.2,1.1,0.6,2.1,1,3.1
				c0.4,1,1,1.9,1.7,2.7c0.7,0.8,1.4,1.5,2.3,2c0.8,0.6,1.7,1,2.7,1.4c0.5,0.2,0.9,0.3,1.4,0.5c0.1,0,0.2,0.1,0.3,0.1l0.4,0.1
				c0.2,0.1,0.5,0.1,0.7,0.2c0.9,0.2,1.9,0.4,2.8,0.5c0.9,0.1,1.8,0.3,2.7,0.4c0.9,0.1,1.7,0.2,2.5,0.4c0.8,0.2,1.5,0.4,2.3,0.6
				c0.7,0.2,1.4,0.4,2,0.7c1.2,0.4,2.3,0.8,3.2,1.1c0.9,0.3,1.6,0.5,2.1,0.6c0.2,0.1,0.4,0.1,0.6,0.1c0.1,0,0.2,0,0.2,0
				s-0.1,0-0.2,0c-0.1,0-0.3,0-0.6-0.1c-0.5-0.1-1.2-0.3-2.1-0.5c-0.9-0.2-2-0.6-3.3-0.9c-0.6-0.2-1.3-0.4-2-0.6
				c-0.7-0.2-1.5-0.4-2.2-0.5c-0.2,0-0.4-0.1-0.6-0.1c-0.1,0-0.2,0-0.3,0c-0.1,0-0.2,0-0.3,0c-0.4,0-0.8-0.1-1.3-0.1
				c-0.9-0.1-1.8-0.2-2.7-0.3c-0.9-0.1-1.9-0.2-2.8-0.4c-0.2,0-0.5-0.1-0.7-0.2l-0.4-0.1c-0.1,0-0.2-0.1-0.4-0.1
				c-0.5-0.1-1-0.3-1.5-0.4c-1-0.3-1.9-0.8-2.9-1.4c-0.9-0.6-1.8-1.3-2.5-2.2c-0.7-0.9-1.3-1.9-1.8-2.9c-0.2-0.5-0.4-1.1-0.6-1.6
				c-0.1-0.3-0.2-0.6-0.2-0.8c0-0.1-0.1-0.3-0.1-0.4l-0.1-0.2c0-0.1,0-0.2,0-0.2c-0.3-1.2-0.2-2.4,0.1-3.6c0.3-1.2,1-2.2,1.7-3
				c0.8-0.8,1.7-1.5,2.7-2c1-0.5,2-0.8,3.1-0.9c1-0.1,2.1,0,3.1,0.3c0.5,0.2,1,0.4,1.4,0.6c0.1,0.1,0.2,0.1,0.3,0.2l0.2,0.1l0.1,0.1
				c0.2,0.2,0.4,0.3,0.6,0.5c0.2,0.1,0.4,0.3,0.5,0.5c0.2,0.2,0.3,0.3,0.5,0.5c0.3,0.3,0.7,0.6,1,0.9c0.2,0.2,0.3,0.3,0.5,0.5
				c0.2,0.2,0.3,0.3,0.5,0.5c0.3,0.3,0.6,0.6,0.9,0.9c1.1,1.2,2.1,2.4,3,3.4c0.9,1,1.7,1.9,2.3,2.6c0.6,0.7,1.2,1.3,1.5,1.6
				C140.8,111.6,141,111.8,141,111.8z"/>
		</g>
		<g>
			<path class="st0" d="M131.4,73.3c0,0-0.1,0-0.4,0c-0.2,0-0.6,0-1,0c-0.9,0-2.1,0-3.5,0.1c-0.7,0.1-1.5,0.2-2.3,0.4
				c-0.8,0.2-1.6,0.5-2.3,0.9c-0.4,0.2-0.7,0.5-0.9,0.8c-0.2,0.3-0.4,0.7-0.5,1.1c-0.1,0.4-0.1,0.8-0.1,1.3c0,0.1,0,0.2,0,0.3l0,0.1
				v0l0,0c0,0,0,0,0,0l0,0l0,0.2c0,0.2,0.1,0.4,0.2,0.6c0.3,0.8,0.9,1.4,1.6,1.6c0.4,0.1,0.8,0.1,1.2,0c0.4-0.1,0.8-0.2,1.2-0.4
				c0.8-0.4,1.5-0.9,2.1-1.4c0.6-0.5,1.2-1.1,1.7-1.7c0.5-0.6,0.9-1.1,1.3-1.6c0.4-0.5,0.7-0.9,0.9-1.3c0.2-0.4,0.4-0.7,0.5-0.9
				C131.4,73.4,131.4,73.3,131.4,73.3s0,0.1-0.1,0.4c-0.1,0.2-0.2,0.6-0.4,1c-0.2,0.4-0.4,0.9-0.7,1.5c-0.3,0.5-0.7,1.2-1.2,1.8
				c-0.5,0.6-1,1.3-1.6,1.9c-0.3,0.3-0.7,0.6-1,0.9c-0.2,0.1-0.4,0.3-0.6,0.4c-0.2,0.1-0.4,0.3-0.6,0.4c-0.5,0.2-0.9,0.4-1.5,0.6
				c-0.5,0.1-1.1,0.1-1.7,0c-0.6-0.1-1.1-0.4-1.6-0.9c-0.4-0.4-0.7-1-1-1.5c-0.1-0.3-0.2-0.6-0.2-0.9l0-0.2l0,0l0-0.1l0-0.1
				c0-0.1,0-0.3,0-0.4c0-0.6,0-1.2,0.2-1.7c0.2-0.6,0.4-1.1,0.8-1.6c0.4-0.4,0.8-0.8,1.3-1c0.9-0.5,1.8-0.7,2.7-0.9
				c0.9-0.1,1.7-0.2,2.4-0.2c0.8,0,1.4,0.1,2,0.1c0.6,0.1,1.1,0.2,1.6,0.2c0.4,0.1,0.8,0.2,1,0.2C131.3,73.3,131.4,73.3,131.4,73.3z
				"/>
		</g>
		<g>
			<path class="st0" d="M136.3,65c0,0-0.1,0-0.3,0.1c-0.2,0.1-0.4,0.2-0.8,0.3c-0.3,0.1-0.8,0.2-1.3,0.4c-0.5,0.1-1.1,0.3-1.8,0.4
				c-1.3,0.2-3,0.4-4.9,0.5c-0.9,0.1-1.9,0.2-3,0.2c-1.1,0.1-2.1,0.2-3.3,0.5c-1.1,0.2-2.3,0.6-3.4,1.1c-1.1,0.5-2.1,1.3-3.1,2.2
				c-1,0.9-1.9,1.9-2.8,3.1c-0.9,1.1-1.7,2.3-2.5,3.6c-0.8,1.3-1.5,2.6-2.2,4c-0.7,1.4-1.2,2.8-1.6,4.3c-0.2,0.7-0.4,1.5-0.4,2.3
				c-0.1,0.7,0,1.5,0.3,2.1c0.1,0.3,0.3,0.5,0.6,0.7c0.3,0.2,0.6,0.3,0.9,0.3c0.2,0,0.3,0,0.5,0l0.6,0l1.2,0
				c3.1-0.1,6.2-0.2,9.2-0.5c3-0.3,6-0.8,8.7-1.6c1.4-0.4,2.7-0.9,3.9-1.5s2.4-1.3,3.4-2.2c0.5-0.4,0.9-0.9,1.3-1.4
				c0.4-0.5,0.8-1,1.1-1.6c0.7-1.1,1.2-2.2,1.7-3.3c0.5-1.1,1-2.2,1.5-3.2c0.5-1,1-1.9,1.5-2.7c1-1.7,2.1-3,2.9-4.1
				c0.9-1.1,1.6-1.9,2.1-2.5c0.5-0.6,0.8-0.8,0.8-0.8s-0.2,0.3-0.7,0.9c-0.5,0.6-1.1,1.5-2,2.6c-0.8,1.1-1.8,2.5-2.7,4.2
				c-0.5,0.8-1,1.8-1.4,2.8c-0.5,1-0.9,2.1-1.4,3.2c-0.2,0.6-0.5,1.1-0.8,1.7c-0.3,0.6-0.6,1.1-0.9,1.7c-0.3,0.6-0.7,1.1-1.1,1.7
				c-0.4,0.5-0.9,1.1-1.4,1.5c-1,0.9-2.2,1.7-3.5,2.4c-1.3,0.7-2.7,1.2-4.1,1.6c-2.8,0.9-5.8,1.4-8.9,1.7c-3.1,0.3-6.2,0.4-9.3,0.5
				l-1.2,0l-0.6,0c-0.2,0-0.4,0-0.6,0c-0.4-0.1-0.9-0.2-1.3-0.5c-0.4-0.3-0.7-0.7-1-1.1c-0.2-0.4-0.3-0.9-0.4-1.3
				c-0.1-0.4-0.1-0.9,0-1.3c0.1-0.9,0.2-1.7,0.5-2.5c0.4-1.6,1.1-3.1,1.7-4.5c0.7-1.4,1.5-2.8,2.3-4c1.6-2.6,3.5-4.9,5.5-6.7
				c0.5-0.5,1.1-0.9,1.6-1.3c0.6-0.4,1.1-0.7,1.7-1c1.2-0.5,2.4-0.8,3.6-1c2.3-0.4,4.5-0.4,6.4-0.5c1.9-0.1,3.5-0.1,4.9-0.3
				c1.3-0.2,2.4-0.4,3.1-0.6c0.3-0.1,0.6-0.2,0.8-0.2C136.2,65,136.3,65,136.3,65z"/>
		</g>
		<g>
			<path class="st0" d="M136.3,65c0,0-0.3,0.1-0.7,0.3c-0.5,0.2-1.2,0.4-2.1,0.7c-0.9,0.3-2,0.6-3.3,1c-1.3,0.4-2.7,0.7-4.2,1.2
				c-0.4,0.1-0.8,0.2-1.2,0.4c-0.2,0.1-0.4,0.1-0.6,0.2c-0.2,0.1-0.4,0.1-0.6,0.2c-0.4,0.1-0.8,0.3-1.2,0.5
				c-0.2,0.1-0.4,0.2-0.6,0.3c-0.2,0.1-0.4,0.2-0.6,0.3c-0.2,0.1-0.4,0.2-0.6,0.3l-0.2,0.1l-0.1,0.1c-0.1,0.1-0.2,0.1-0.3,0.2
				c-0.4,0.2-0.7,0.6-1.1,0.9c-0.6,0.7-1.2,1.5-1.5,2.4c-0.7,1.8-0.9,4-0.3,6c0.3,1,0.8,1.9,1.5,2.7c0.7,0.8,1.5,1.3,2.5,1.6
				c1,0.3,2,0.5,3,0.6c1,0.1,2,0,3-0.2c1-0.2,1.9-0.6,2.8-1c0.9-0.5,1.7-1.1,2.4-1.7c0.4-0.3,0.7-0.7,1.1-1c0.1-0.1,0.2-0.2,0.3-0.3
				l0.3-0.3c0.2-0.2,0.3-0.4,0.5-0.6c0.6-0.7,1.2-1.5,1.8-2.3c0.6-0.8,1.1-1.5,1.6-2.2c0.5-0.7,1-1.4,1.6-2.1
				c0.6-0.6,1.1-1.2,1.6-1.7c0.5-0.5,1.1-1,1.5-1.5c1-0.9,1.8-1.7,2.5-2.4c0.7-0.7,1.2-1.2,1.6-1.6c0.2-0.2,0.3-0.3,0.4-0.4
				c0.1-0.1,0.1-0.2,0.1-0.2s0,0.1-0.1,0.2c-0.1,0.1-0.2,0.3-0.4,0.5c-0.3,0.4-0.8,1-1.5,1.7c-0.7,0.7-1.5,1.5-2.4,2.5
				c-0.5,0.5-1,1-1.5,1.5c-0.5,0.5-1,1.1-1.5,1.8c-0.1,0.2-0.3,0.3-0.4,0.5c-0.1,0.1-0.1,0.2-0.2,0.3c-0.1,0.1-0.1,0.2-0.2,0.3
				c-0.2,0.4-0.5,0.7-0.7,1.1c-0.5,0.7-1,1.5-1.6,2.3c-0.5,0.8-1.1,1.6-1.8,2.4c-0.2,0.2-0.3,0.4-0.5,0.6l-0.2,0.3
				c-0.1,0.1-0.2,0.2-0.3,0.3c-0.3,0.4-0.7,0.8-1.1,1.1c-0.8,0.7-1.6,1.4-2.6,1.9c-0.9,0.5-2,1-3.1,1.2c-1.1,0.2-2.2,0.3-3.3,0.2
				c-0.6,0-1.1-0.1-1.6-0.2c-0.3-0.1-0.5-0.1-0.8-0.2c-0.1,0-0.3-0.1-0.4-0.1l-0.2-0.1c-0.1,0-0.1,0-0.2-0.1c-1.1-0.4-2.1-1-2.9-1.9
				c-0.8-0.9-1.3-2-1.6-3.1c-0.3-1.1-0.4-2.3-0.3-3.4c0.1-1.1,0.3-2.2,0.8-3.2c0.4-1,1-1.9,1.8-2.7c0.4-0.4,0.8-0.7,1.2-1
				c0.1-0.1,0.2-0.1,0.3-0.2l0.2-0.1l0.2-0.1c0.2-0.1,0.4-0.2,0.7-0.3c0.2-0.1,0.4-0.2,0.7-0.3c0.2-0.1,0.4-0.2,0.6-0.2
				c0.4-0.1,0.8-0.3,1.3-0.4c0.2-0.1,0.4-0.1,0.6-0.2c0.2-0.1,0.4-0.1,0.6-0.2c0.4-0.1,0.8-0.2,1.2-0.3c1.6-0.4,3-0.7,4.3-1
				c1.3-0.3,2.4-0.6,3.3-0.8c0.9-0.2,1.6-0.4,2.1-0.6C136.1,65.1,136.3,65,136.3,65z"/>
		</g>
	</g>
	<g>
		<path class="st36" d="M42.3,160.9c-0.3,0.1-0.9,0.3-1.7,0.3c-1.8,0-2.9-1.2-2.9-3c0-1.8,1.2-3.1,3.2-3.1c0.6,0,1.2,0.2,1.5,0.3
			l-0.2,0.8c-0.3-0.1-0.7-0.3-1.2-0.3c-1.4,0-2.1,1-2.1,2.2c0,1.4,0.9,2.2,2.1,2.2c0.6,0,1-0.2,1.3-0.3L42.3,160.9z"/>
		<path class="st36" d="M48.8,158.2c0,2.2-1.5,3.1-2.9,3.1c-1.6,0-2.8-1.2-2.8-3c0-2,1.3-3.1,2.9-3.1
			C47.7,155.1,48.8,156.3,48.8,158.2z M44.1,158.2c0,1.3,0.7,2.3,1.8,2.3c1,0,1.8-1,1.8-2.3c0-1-0.5-2.3-1.8-2.3
			C44.7,155.9,44.1,157.1,44.1,158.2z"/>
		<path class="st36" d="M50.2,156.8c0-0.6,0-1.1-0.1-1.6h0.9l0,1h0c0.3-0.6,0.9-1.1,1.9-1.1c0.8,0,1.4,0.5,1.7,1.2h0
			c0.2-0.3,0.4-0.6,0.7-0.8c0.4-0.3,0.7-0.4,1.3-0.4c0.8,0,1.9,0.5,1.9,2.6v3.5h-1.1v-3.4c0-1.1-0.4-1.8-1.3-1.8
			c-0.6,0-1.1,0.5-1.3,1c0,0.1-0.1,0.3-0.1,0.5v3.7h-1.1v-3.5c0-0.9-0.4-1.6-1.2-1.6c-0.7,0-1.2,0.5-1.3,1.1
			c-0.1,0.2-0.1,0.3-0.1,0.5v3.6h-1.1V156.8z"/>
		<path class="st36" d="M60.4,156.8c0-0.6,0-1.1,0-1.6h0.9l0,1h0c0.3-0.6,0.9-1.1,1.9-1.1c0.8,0,1.4,0.5,1.7,1.2h0
			c0.2-0.3,0.4-0.6,0.7-0.8c0.4-0.3,0.7-0.4,1.3-0.4c0.8,0,1.9,0.5,1.9,2.6v3.5h-1.1v-3.4c0-1.1-0.4-1.8-1.3-1.8
			c-0.6,0-1.1,0.5-1.3,1c0,0.1-0.1,0.3-0.1,0.5v3.7h-1.1v-3.5c0-0.9-0.4-1.6-1.2-1.6c-0.7,0-1.2,0.5-1.3,1.1
			c-0.1,0.2-0.1,0.3-0.1,0.5v3.6h-1.1V156.8z"/>
		<path class="st36" d="M75.5,159.5c0,0.6,0,1.1,0,1.6h-1l-0.1-1h0c-0.3,0.5-0.9,1.1-2,1.1c-0.9,0-2-0.5-2-2.6v-3.5h1.1v3.3
			c0,1.1,0.3,1.9,1.3,1.9c0.7,0,1.2-0.5,1.4-1c0.1-0.2,0.1-0.4,0.1-0.5v-3.6h1.1V159.5z"/>
		<path class="st36" d="M77.3,156.8c0-0.6,0-1.1,0-1.6h1l0.1,1h0c0.3-0.6,1-1.1,2-1.1c0.8,0,2.1,0.5,2.1,2.5v3.5h-1.1v-3.4
			c0-1-0.4-1.8-1.4-1.8c-0.7,0-1.3,0.5-1.4,1.1c0,0.1-0.1,0.3-0.1,0.5v3.6h-1.1V156.8z"/>
		<path class="st36" d="M85.3,153.6c0,0.4-0.3,0.7-0.7,0.7c-0.4,0-0.6-0.3-0.6-0.7c0-0.4,0.3-0.7,0.7-0.7
			C85,152.9,85.3,153.2,85.3,153.6z M84.1,161.2v-5.9h1.1v5.9H84.1z"/>
		<path class="st36" d="M88.2,153.5v1.7h1.5v0.8h-1.5v3.2c0,0.7,0.2,1.2,0.8,1.2c0.3,0,0.5,0,0.6-0.1l0,0.8c-0.2,0.1-0.5,0.1-1,0.1
			c-0.5,0-0.9-0.2-1.2-0.5c-0.3-0.3-0.4-0.8-0.4-1.5v-3.2h-0.9v-0.8h0.9v-1.4L88.2,153.5z"/>
		<path class="st36" d="M91.5,155.2l1.3,3.5c0.1,0.4,0.3,0.9,0.4,1.2h0c0.1-0.4,0.2-0.8,0.4-1.2l1.2-3.5h1.1l-1.6,4.2
			c-0.8,2-1.3,3.1-2,3.7c-0.5,0.5-1.1,0.6-1.3,0.7l-0.3-0.9c0.3-0.1,0.6-0.3,0.9-0.5c0.3-0.2,0.7-0.6,0.9-1.2c0-0.1,0.1-0.2,0.1-0.3
			c0-0.1,0-0.1-0.1-0.3l-2.2-5.5H91.5z"/>
		<path class="st36" d="M99.9,155.2l0.9,2.9c0.1,0.4,0.2,0.8,0.3,1.1h0c0.1-0.3,0.2-0.8,0.3-1.1l0.7-2.9h2l-1.4,3.9
			c-0.9,2.4-1.4,3.3-2.1,3.9c-0.6,0.6-1.3,0.8-1.8,0.8l-0.4-1.6c0.2,0,0.5-0.1,0.8-0.3c0.3-0.1,0.6-0.4,0.8-0.7
			c0.1-0.1,0.1-0.2,0.1-0.3c0-0.1,0-0.2-0.1-0.3l-2.2-5.5H99.9z"/>
		<path class="st36" d="M110.6,158.1c0,2.2-1.6,3.2-3.2,3.2c-1.7,0-3.1-1.2-3.1-3.1c0-1.9,1.3-3.2,3.2-3.2
			C109.4,155,110.6,156.3,110.6,158.1z M106.3,158.2c0,1,0.4,1.8,1.2,1.8c0.7,0,1.2-0.7,1.2-1.8c0-0.9-0.3-1.8-1.2-1.8
			C106.6,156.4,106.3,157.3,106.3,158.2z"/>
		<path class="st36" d="M117.5,155.2c0,0.4,0,0.9,0,1.8v3.3c0,1.1-0.2,2.1-0.9,2.7c-0.7,0.6-1.6,0.7-2.4,0.7c-0.8,0-1.6-0.2-2.2-0.5
			l0.4-1.4c0.4,0.2,1,0.5,1.7,0.5c0.9,0,1.5-0.5,1.5-1.6v-0.4h0c-0.4,0.5-0.9,0.8-1.6,0.8c-1.5,0-2.5-1.2-2.5-2.9
			c0-1.9,1.2-3.1,2.7-3.1c0.8,0,1.3,0.4,1.6,0.8h0l0.1-0.7H117.5z M115.6,157.6c0-0.1,0-0.2,0-0.3c-0.1-0.5-0.5-0.8-1-0.8
			c-0.7,0-1.2,0.6-1.2,1.7c0,0.9,0.4,1.6,1.2,1.6c0.5,0,0.9-0.3,1-0.8c0-0.1,0.1-0.3,0.1-0.5V157.6z"/>
		<path class="st36" d="M122.4,161.2l-0.1-0.6h0c-0.4,0.5-1,0.7-1.7,0.7c-1.2,0-1.9-0.9-1.9-1.8c0-1.6,1.4-2.3,3.5-2.3v-0.1
			c0-0.3-0.2-0.8-1.1-0.8c-0.6,0-1.3,0.2-1.7,0.5l-0.3-1.2c0.4-0.2,1.2-0.5,2.3-0.5c2,0,2.6,1.2,2.6,2.6v2.1c0,0.6,0,1.1,0.1,1.5
			H122.4z M122.1,158.3c-1,0-1.7,0.2-1.7,0.9c0,0.5,0.3,0.7,0.7,0.7c0.5,0,0.8-0.3,1-0.7c0-0.1,0-0.2,0-0.3V158.3z"/>
		<path class="st36" d="M127.3,157.2c0-0.8,0-1.4,0-1.9h1l0,1h0c0.4-0.7,1.1-1.1,2.1-1.1c1.4,0,2.5,1.2,2.5,3c0,2.1-1.3,3.2-2.7,3.2
			c-0.8,0-1.5-0.3-1.8-0.9h0v3.2h-1.1V157.2z M128.3,158.8c0,0.2,0,0.3,0,0.4c0.2,0.7,0.8,1.3,1.6,1.3c1.1,0,1.8-0.9,1.8-2.3
			c0-1.2-0.6-2.2-1.8-2.2c-0.7,0-1.4,0.5-1.6,1.3c0,0.1-0.1,0.3-0.1,0.4V158.8z"/>
		<path class="st36" d="M134.2,157.1c0-0.7,0-1.3,0-1.8h0.9l0,1.2h0c0.3-0.8,0.9-1.3,1.6-1.3c0.1,0,0.2,0,0.3,0v1
			c-0.1,0-0.2,0-0.4,0c-0.8,0-1.3,0.6-1.4,1.4c0,0.1,0,0.3,0,0.5v3.2h-1.1V157.1z"/>
		<path class="st36" d="M143.4,158.2c0,2.2-1.5,3.1-2.9,3.1c-1.6,0-2.8-1.2-2.8-3c0-2,1.3-3.1,2.9-3.1
			C142.3,155.1,143.4,156.3,143.4,158.2z M138.7,158.2c0,1.3,0.7,2.3,1.8,2.3c1,0,1.8-1,1.8-2.3c0-1-0.5-2.3-1.8-2.3
			C139.3,155.9,138.7,157.1,138.7,158.2z"/>
		<path class="st36" d="M143.4,162.9c0.5,0,0.9-0.2,1.2-0.5c0.3-0.3,0.4-0.8,0.4-2.2v-5h1.1v5.4c0,1.1-0.2,1.9-0.7,2.4
			c-0.5,0.5-1.3,0.7-1.8,0.7L143.4,162.9z M146.1,153.6c0,0.4-0.2,0.7-0.7,0.7c-0.4,0-0.7-0.3-0.7-0.7c0-0.4,0.3-0.7,0.7-0.7
			C145.9,152.9,146.1,153.2,146.1,153.6z"/>
		<path class="st36" d="M148.4,158.4c0,1.5,1,2.1,2,2.1c0.8,0,1.2-0.1,1.6-0.3l0.2,0.8c-0.4,0.2-1,0.4-2,0.4c-1.8,0-2.9-1.2-2.9-3
			c0-1.8,1.1-3.2,2.8-3.2c1.9,0,2.4,1.7,2.4,2.8c0,0.2,0,0.4,0,0.5H148.4z M151.5,157.6c0-0.7-0.3-1.7-1.5-1.7c-1.1,0-1.6,1-1.7,1.7
			H151.5z"/>
		<path class="st36" d="M158.1,160.9c-0.3,0.1-0.9,0.3-1.7,0.3c-1.8,0-2.9-1.2-2.9-3c0-1.8,1.2-3.1,3.2-3.1c0.6,0,1.2,0.2,1.5,0.3
			l-0.2,0.8c-0.3-0.1-0.7-0.3-1.2-0.3c-1.4,0-2.1,1-2.1,2.2c0,1.4,0.9,2.2,2.1,2.2c0.6,0,1-0.2,1.3-0.3L158.1,160.9z"/>
		<path class="st36" d="M160.8,153.5v1.7h1.5v0.8h-1.5v3.2c0,0.7,0.2,1.2,0.8,1.2c0.3,0,0.5,0,0.6-0.1l0,0.8c-0.2,0.1-0.5,0.1-1,0.1
			c-0.5,0-0.9-0.2-1.2-0.5c-0.3-0.3-0.4-0.8-0.4-1.5v-3.2h-0.9v-0.8h0.9v-1.4L160.8,153.5z"/>
	</g>
</g>
</svg>
