<svg id="Layer_1" data-name="Layer 1" xmlns="http://www.w3.org/2000/svg" viewBox="0 0 200 200"><defs><style>.cls-1{fill:#fff;}.cls-2{fill:#ee3124;}.cls-3,.cls-4{fill:#231f20;}.cls-4{stroke:#fff;stroke-miterlimit:10;stroke-width:0.56px;}</style></defs><title>mdacc</title><rect class="cls-1" width="200" height="200"/><path class="cls-2" d="M28.19,90V41.19H46.3c7.77,0,14.19,2.23,14.19,12.63,0,5.61-2.77,9.66-8.31,10.74V64.7c7.23,1,9.12,5.68,9.12,12.37C61.3,89.43,50.56,90,46.23,90h-18Zm10.2-28.85h6.82c2.23,0,5.34-1.49,5.34-6.22,0-3.58-2.43-6.22-5.88-6.22H38.39V61.12Zm0,21.35h5.68c2.16,0,7-.07,7-6.89,0-4.33-1.62-7-6.76-7H38.39V82.47Z"/><path class="cls-2" d="M65.36,65.58c0-12.91,0-25.2,16.83-25.2S99,52.67,99,65.58s0,25.21-16.82,25.21S65.36,78.35,65.36,65.58Zm23.31,0c0-12.5-.74-17.91-6.49-17.91S75.7,53.08,75.7,65.58s0.74,17.91,6.49,17.91S88.67,78.08,88.67,65.58Z"/><path class="cls-2" d="M103.94,65.58c0-12.91,0-25.2,16.82-25.2s16.83,12.3,16.83,25.2,0,25.21-16.83,25.21S103.94,78.35,103.94,65.58Zm23.31,0c0-12.5-.74-17.91-6.49-17.91s-6.49,5.41-6.49,17.91,0.74,17.91,6.49,17.91S127.26,78.08,127.26,65.58Z"/><path class="cls-2" d="M172.46,41.19V49.3H161.1V90H150.9V49.3H139.55V41.19h32.91Z"/><path class="cls-3" d="M27.54,94.37h8.7l5.27,28.45h0.11L48,94.37H58l6.06,28.45h0.11l5.05-28.45h8.3l-9,40.51H59.19l-6.34-29.63H52.74l-7,29.63h-9.2Z"/><path class="cls-3" d="M74.43,134.88L85.65,94.37H96.82l11,40.51H98.9l-2.24-9H85.09l-2.3,9H74.43Zm16.33-32.71H90.65l-3.87,17.51h8.08Z"/><path class="cls-3" d="M161.69,94.37H171l-11.33,18.18L171,134.88h-9.54l-9.71-20.76h-0.11v20.76h-8.47V94.37h8.47v17.34h0.11Z"/><path class="cls-3" d="M113.05,134.9h4.33l1.68-3.18,7.42,3.18h13.43v-3.18c0-1.85-1.15-1.85-2-1.85a16.43,16.43,0,0,1-7.07-2.47,8.46,8.46,0,0,1-3.62-7.24V99.57c0-3.62-3.8-5.48-8.31-5.48S111,97,111,99.12v32Z"/><polygon class="cls-4" points="118.37 93.07 121.5 93.07 121.5 99.34 119.93 101.76 118.37 99.34 118.37 93.07"/><polygon class="cls-1" points="139.93 133.88 126.45 133.88 119.06 130.79 110.99 130.79 110.99 130.33 119.06 130.33 126.45 133.43 139.93 133.43 139.93 133.88"/><path class="cls-3" d="M38.77,159.23a2.66,2.66,0,0,1-1.1.34c-1.66,0-2.58-1.05-2.58-3.13v-7.66H33.27l-0.11-.26,0.71-.76h1.21v-1.92l1.71-1.74,0.37,0.05v3.6h3a0.75,0.75,0,0,1-.16,1H37.16v6.76c0,2.13.87,2.53,1.53,2.53a3.76,3.76,0,0,0,1.63-.45l0.24,0.68Z"/><path class="cls-3" d="M52.5,153.31a5.85,5.85,0,0,1-5.71,6.26A5.7,5.7,0,0,1,41,153.75a6,6,0,0,1,5.76-6.31A5.71,5.71,0,0,1,52.5,153.31Zm-9-.39c0,3.32,1.45,5.79,3.6,5.79,1.63,0,3-1.21,3-4.81,0-3.08-1.24-5.58-3.53-5.58C44.9,148.31,43.48,149.94,43.48,152.91Z"/><path class="cls-2" d="M78.08,157a6,6,0,0,1-4.29,2.55c-3.24,0-5.13-2.63-5.13-5.6a6.77,6.77,0,0,1,1.74-4.6,5.34,5.34,0,0,1,3.87-1.92,4.07,4.07,0,0,1,3.95,4,0.69,0.69,0,0,1-.61.84c-0.45.08-3.74,0.34-6.87,0.45,0,3.58,2.08,5.05,3.92,5.05a4.3,4.3,0,0,0,3-1.32Zm-7.21-5.37c1.47,0,2.92,0,4.45-.08,0.47,0,.63-0.16.63-0.53a2.41,2.41,0,0,0-2.32-2.63C72.43,148.41,71.27,149.52,70.87,151.65Z"/><path class="cls-2" d="M86.63,159.25v-0.68c1.55-.16,1.74-0.37,1.74-2.18V152c0-1.82-.63-3-2.39-3a4.7,4.7,0,0,0-2.87,1.34v6.18c0,1.79.16,1.89,1.71,2.05v0.68H79.11v-0.68c1.79-.18,1.92-0.32,1.92-2.05v-5.45c0-1.68-.16-1.76-1.58-2v-0.61a15.85,15.85,0,0,0,3.66-1.08v2.1c0.53-.39,1.1-0.79,1.76-1.24a4,4,0,0,1,2.18-.79c2.08,0,3.39,1.45,3.39,4v5.08c0,1.79.13,1.89,1.66,2.05v0.68H86.63Z"/><path class="cls-2" d="M105.08,158.57a27.16,27.16,0,0,0-4.08,1v-1.71l-1.6.95a4.63,4.63,0,0,1-2.05.76,5.27,5.27,0,0,1-4.87-5.6,6.73,6.73,0,0,1,6.79-6.52,6.07,6.07,0,0,1,1.74.29V144c0-1.74-.13-1.82-2-1.95v-0.63a24.41,24.41,0,0,0,4.1-.92v15.71c0,1.37.18,1.5,1.16,1.61l0.84,0.08v0.66ZM101,149.75a3.27,3.27,0,0,0-2.71-1.34c-1.21,0-3.42,1-3.42,4.84,0,3.13,1.92,4.66,3.6,4.66A4.43,4.43,0,0,0,101,157v-7.26Z"/><path class="cls-3" d="M115.58,156.88a6.26,6.26,0,0,1-4.47,2.68,5.26,5.26,0,0,1-5.26-5.5,6.32,6.32,0,0,1,2.63-5.16,7,7,0,0,1,4-1.47,3.93,3.93,0,0,1,2.34.68,1,1,0,0,1,.42.82,1.29,1.29,0,0,1-.87,1.13,0.83,0.83,0,0,1-.5-0.29,3.82,3.82,0,0,0-2.63-1.08c-1.74,0-3.26,1.45-3.26,4.21,0,3.66,2.5,4.87,4,4.87a4.28,4.28,0,0,0,3.21-1.45Z"/><path class="cls-3" d="M124.68,159.57a2.14,2.14,0,0,1-1.24-.5,2.72,2.72,0,0,1-.63-1.18c-1.05.71-2.32,1.68-3.11,1.68a3.18,3.18,0,0,1-3.16-3.21,2.63,2.63,0,0,1,2.13-2.6,18.86,18.86,0,0,0,4.08-1.71v-0.47c0-1.89-.89-3-2.21-3a1.48,1.48,0,0,0-1.18.53,3.83,3.83,0,0,0-.79,1.74,0.73,0.73,0,0,1-.76.61,1.29,1.29,0,0,1-1.16-1.13,1.53,1.53,0,0,1,.84-1.05,11.75,11.75,0,0,1,3.95-1.84,3.43,3.43,0,0,1,2.16.71,3.82,3.82,0,0,1,1.18,3.21v4.89c0,1.18.47,1.58,0.92,1.58a2,2,0,0,0,.95-0.29l0.26,0.68Zm-1.92-6.63c-0.55.29-1.81,0.84-2.37,1.11-1,.47-1.6,1-1.6,1.92a1.93,1.93,0,0,0,1.87,2,3.75,3.75,0,0,0,2.1-.95v-4.1Z"/><path class="cls-3" d="M134.6,159.25v-0.68c1.55-.16,1.74-0.37,1.74-2.18V152c0-1.82-.63-3-2.39-3a4.7,4.7,0,0,0-2.87,1.34v6.18c0,1.79.16,1.89,1.71,2.05v0.68h-5.71v-0.68c1.79-.18,1.92-0.32,1.92-2.05v-5.45c0-1.68-.16-1.76-1.58-2v-0.61a15.85,15.85,0,0,0,3.66-1.08v2.1c0.53-.39,1.1-0.79,1.76-1.24a4,4,0,0,1,2.18-.79c2.08,0,3.39,1.45,3.39,4v5.08c0,1.79.13,1.89,1.66,2.05v0.68H134.6Z"/><path class="cls-3" d="M150.18,156.88a6.26,6.26,0,0,1-4.47,2.68,5.26,5.26,0,0,1-5.26-5.5,6.32,6.32,0,0,1,2.63-5.16,7,7,0,0,1,4-1.47,3.93,3.93,0,0,1,2.34.68,1,1,0,0,1,.42.82,1.29,1.29,0,0,1-.87,1.13,0.83,0.83,0,0,1-.5-0.29,3.82,3.82,0,0,0-2.63-1.08c-1.74,0-3.26,1.45-3.26,4.21,0,3.66,2.5,4.87,4,4.87a4.28,4.28,0,0,0,3.21-1.45Z"/><path class="cls-3" d="M160.44,157a6,6,0,0,1-4.29,2.55c-3.24,0-5.13-2.63-5.13-5.6a6.77,6.77,0,0,1,1.74-4.6,5.34,5.34,0,0,1,3.87-1.92,4.07,4.07,0,0,1,3.95,4,0.69,0.69,0,0,1-.61.84c-0.45.08-3.74,0.34-6.87,0.45,0,3.58,2.08,5.05,3.92,5.05a4.3,4.3,0,0,0,3-1.32Zm-7.21-5.37c1.47,0,2.92,0,4.45-.08,0.47,0,.63-0.16.63-0.53a2.41,2.41,0,0,0-2.32-2.63C154.78,148.41,153.63,149.52,153.23,151.65Z"/><path class="cls-3" d="M165.52,150.23c0.79-1.32,1.92-2.79,3.18-2.79a1.46,1.46,0,0,1,1.53,1.32,1.48,1.48,0,0,1-.84,1.29,0.61,0.61,0,0,1-.71-0.05,1.41,1.41,0,0,0-1.11-.55c-0.68,0-1.53.79-2.1,2.26v4.81c0,1.74.13,1.89,2.16,2.05v0.68h-6.05v-0.68c1.63-.16,1.82-0.32,1.82-2.05v-5.45c0-1.74-.13-1.84-1.63-2.05v-0.58a14.91,14.91,0,0,0,3.71-1.08v2.87h0.05Z"/><path class="cls-3" d="M66.89,152.17h-2l-0.35,2.42h1.8l-0.08,1.64H64.3l-0.46,3.38H62.79l0.46-3.38H61.17l-0.44,3.38H59.66l0.44-3.38H58l0-1.64h2.25l0.32-2.42H58.72v-1.64h2.12l0.39-2.9h1.09L62,150.53H64l0.39-2.9h1.05l-0.39,2.9h1.86Zm-5.14,0-0.35,2.42h2.08l0.32-2.42H61.75Z"/></svg>