<svg xmlns="http://www.w3.org/2000/svg" xmlns:xlink="http://www.w3.org/1999/xlink" viewBox="0 0 200 200"><defs><style>.cls-1,.cls-10{fill:none;}.cls-2{isolation:isolate;}.cls-3{fill:#fff;}.cls-4{fill:#e27c00;}.cls-5{fill:#ffd923;}.cls-6{clip-path:url(#clip-path);}.cls-7{fill:#faa819;}.cls-8{fill:#fffffe;}.cls-26,.cls-9{fill:#1d5632;}.cls-10{stroke:#ffd923;stroke-width:2.55px;}.cls-11{fill:url(#linear-gradient);}.cls-12{fill:url(#linear-gradient-2);}.cls-13{fill:url(#linear-gradient-3);}.cls-14{fill:url(#linear-gradient-4);}.cls-15{fill:url(#linear-gradient-5);}.cls-16{fill:#fd0;}.cls-17{fill:url(#linear-gradient-6);}.cls-18{fill:url(#linear-gradient-7);}.cls-19{fill:url(#linear-gradient-8);}.cls-20{fill:url(#linear-gradient-9);}.cls-21{fill:url(#linear-gradient-10);}.cls-22{fill:url(#linear-gradient-11);}.cls-23{fill:url(#linear-gradient-12);}.cls-24,.cls-26{stroke:#1d5632;}.cls-24{stroke-width:0.2px;fill:url(#linear-gradient-13);}.cls-25{mix-blend-mode:multiply;}.cls-26{stroke-width:1.34px;}.cls-27{fill:url(#linear-gradient-14);}.cls-28{fill:url(#linear-gradient-15);}</style><clipPath id="clip-path"><path class="cls-1" d="M26.47,80.73V84l-0.13.27A21.29,21.29,0,0,0,24,93.74h0a21.3,21.3,0,0,0,2.31,9.52h0l0.13,0.27v3.22c11,15.89,40.46,26.57,73.53,26.58h0c32.76,0,62.17-10.57,73.3-26.25h0V104l0.15-.27A21.47,21.47,0,0,0,176,93.74h0a21.46,21.46,0,0,0-2.54-9.95h0l-0.15-.28V80.4C162.15,64.71,132.75,54.17,100,54.15h0c-33.07,0-62.57,10.7-73.53,26.59"/></clipPath><linearGradient id="linear-gradient" x1="117.98" y1="109.47" x2="110" y2="109.47" gradientUnits="userSpaceOnUse"><stop offset="0" stop-color="#6cc04a"/><stop offset="0.27" stop-color="#509a41"/><stop offset="0.59" stop-color="#347539"/><stop offset="0.84" stop-color="#235e34"/><stop offset="1" stop-color="#1d5632"/></linearGradient><linearGradient id="linear-gradient-2" x1="80.58" y1="120.59" x2="83.24" y2="115.99" gradientUnits="userSpaceOnUse"><stop offset="0" stop-color="#6cc04a"/><stop offset="0.04" stop-color="#67ba49"/><stop offset="0.34" stop-color="#478f3f"/><stop offset="0.61" stop-color="#307038"/><stop offset="0.84" stop-color="#225d34"/><stop offset="1" stop-color="#1d5632"/></linearGradient><linearGradient id="linear-gradient-3" x1="91.2" y1="121.92" x2="89.27" y2="116.62" gradientUnits="userSpaceOnUse"><stop offset="0" stop-color="#6cc04a"/><stop offset="0.01" stop-color="#6bbe4a"/><stop offset="0.33" stop-color="#49913f"/><stop offset="0.61" stop-color="#317138"/><stop offset="0.84" stop-color="#225d34"/><stop offset="1" stop-color="#1d5632"/></linearGradient><linearGradient id="linear-gradient-4" x1="80.11" y1="114.16" x2="82.77" y2="109.56" xlink:href="#linear-gradient-3"/><linearGradient id="linear-gradient-5" x1="116.13" y1="103.42" x2="121.66" y2="101.41" gradientTransform="matrix(1, 0.07, -0.07, 1, -23.96, -3.01)" gradientUnits="userSpaceOnUse"><stop offset="0" stop-color="#6cc04a"/><stop offset="0.12" stop-color="#5dac45"/><stop offset="0.38" stop-color="#41873d"/><stop offset="0.62" stop-color="#2d6c37"/><stop offset="0.84" stop-color="#215c33"/><stop offset="1" stop-color="#1d5632"/></linearGradient><linearGradient id="linear-gradient-6" x1="122.06" y1="117.36" x2="116.47" y2="112.66" gradientUnits="userSpaceOnUse"><stop offset="0" stop-color="#6cc04a"/><stop offset="0.39" stop-color="#49913f"/><stop offset="0.79" stop-color="#296636"/><stop offset="1" stop-color="#1d5632"/></linearGradient><linearGradient id="linear-gradient-7" x1="169.34" y1="94.15" x2="176.34" y2="94.15" gradientTransform="translate(-59.4 -16.76) rotate(10)" gradientUnits="userSpaceOnUse"><stop offset="0" stop-color="#6cc04a"/><stop offset="0.22" stop-color="#56a243"/><stop offset="0.56" stop-color="#37793a"/><stop offset="0.84" stop-color="#245f34"/><stop offset="1" stop-color="#1d5632"/></linearGradient><linearGradient id="linear-gradient-8" x1="119.85" y1="118.99" x2="113.35" y2="120.14" gradientUnits="userSpaceOnUse"><stop offset="0" stop-color="#6cc04a"/><stop offset="0.31" stop-color="#4b9440"/><stop offset="0.6" stop-color="#327238"/><stop offset="0.84" stop-color="#235e34"/><stop offset="1" stop-color="#1d5632"/></linearGradient><linearGradient id="linear-gradient-9" x1="110.63" y1="105.44" x2="103.84" y2="106.64" gradientUnits="userSpaceOnUse"><stop offset="0" stop-color="#6cc04a"/><stop offset="0.17" stop-color="#57a444"/><stop offset="0.4" stop-color="#3e823c"/><stop offset="0.62" stop-color="#2c6a36"/><stop offset="0.83" stop-color="#215b33"/><stop offset="1" stop-color="#1d5632"/></linearGradient><linearGradient id="linear-gradient-10" x1="103.75" y1="102.6" x2="99.1" y2="108.13" gradientUnits="userSpaceOnUse"><stop offset="0" stop-color="#6cc04a"/><stop offset="0.66" stop-color="#36773a"/><stop offset="1" stop-color="#1d5632"/></linearGradient><linearGradient id="linear-gradient-11" x1="111.21" y1="123.85" x2="108.17" y2="118.57" gradientUnits="userSpaceOnUse"><stop offset="0" stop-color="#6cc04a"/><stop offset="0.47" stop-color="#42873d"/><stop offset="0.81" stop-color="#276435"/><stop offset="1" stop-color="#1d5632"/></linearGradient><linearGradient id="linear-gradient-12" x1="102.6" y1="119.91" x2="105.66" y2="114.61" gradientUnits="userSpaceOnUse"><stop offset="0" stop-color="#6cc04a"/><stop offset="0.07" stop-color="#61b147"/><stop offset="0.24" stop-color="#48903f"/><stop offset="0.41" stop-color="#357739"/><stop offset="0.6" stop-color="#286435"/><stop offset="0.79" stop-color="#205a33"/><stop offset="1" stop-color="#1d5632"/></linearGradient><linearGradient id="linear-gradient-13" x1="107.5" y1="109.27" x2="110.42" y2="114.34" gradientUnits="userSpaceOnUse"><stop offset="0" stop-color="#6cc04a"/><stop offset="0.1" stop-color="#59a644"/><stop offset="0.25" stop-color="#43893e"/><stop offset="0.4" stop-color="#327338"/><stop offset="0.56" stop-color="#266235"/><stop offset="0.75" stop-color="#1f5933"/><stop offset="1" stop-color="#1d5632"/></linearGradient><linearGradient id="linear-gradient-14" x1="90.15" y1="114.46" x2="94.52" y2="109.25" xlink:href="#linear-gradient-12"/><linearGradient id="linear-gradient-15" x1="96.94" y1="118.12" x2="94.47" y2="113.83" gradientUnits="userSpaceOnUse"><stop offset="0" stop-color="#6cc04a"/><stop offset="0.11" stop-color="#56a243"/><stop offset="0.24" stop-color="#41863d"/><stop offset="0.39" stop-color="#317138"/><stop offset="0.54" stop-color="#266235"/><stop offset="0.73" stop-color="#1f5933"/><stop offset="1" stop-color="#1d5632"/></linearGradient></defs><title>freestore</title><g class="cls-2"><g id="Layer_1" data-name="Layer 1"><rect class="cls-3" width="200" height="200"/><path class="cls-4" d="M42.77,125.53c-7.47-3.83-13.41-8.32-17.63-13.28H22.23l-0.13-.18a32.12,32.12,0,0,1-6.38-18.51,32.11,32.11,0,0,1,6.38-18.51l0.13-.18h3.22A57.65,57.65,0,0,1,42.77,61.95C58.16,54.06,78.48,49.74,100,49.74s41.86,4.32,57.25,12.21A57.67,57.67,0,0,1,174.6,74.87h3.17l0.13,0.18a32.11,32.11,0,0,1,6.38,18.51,32.12,32.12,0,0,1-6.38,18.51l-0.13.18H174.9c-4.22,5-10.16,9.45-17.63,13.28-15.39,7.89-35.7,12.21-57.25,12.21s-41.86-4.32-57.25-12.21"/><path class="cls-5" d="M177.28,93.74A22.6,22.6,0,0,0,174.6,83.2V80l-0.1-.14c-11.07-15.84-40.23-27-74.47-27-34.48,0-63.82,11.3-74.71,27.32l-0.09.14v3.31a22,22,0,0,0,0,20.17v3.31l0.09,0.14c10.89,16,40.22,27.3,74.71,27.32,34.24,0,63.4-11.14,74.47-27l0.1-.14v-3.2a22.6,22.6,0,0,0,2.68-10.54"/><g class="cls-6"><polygon class="cls-3" points="100.31 95.36 102.36 56.01 101.94 95.4 106.44 56.19 103.58 95.51 110.52 56.55 105.2 95.69 114.56 57.09 106.81 95.94 118.56 57.8 108.41 96.26 122.52 58.69 109.98 96.65 126.42 59.75 111.52 97.11 130.24 60.98 113.03 97.63 133.98 62.38 114.51 98.22 137.63 63.94 115.95 98.88 141.17 65.66 117.35 99.6 144.61 67.53 118.7 100.38 147.92 69.55 119.99 101.21 151.1 71.71 121.24 102.11 154.15 74.01 122.43 103.06 157.04 76.44 123.56 104.05 159.78 79 124.62 105.1 162.36 81.67 125.62 106.19 164.76 84.44 126.55 107.32 167 87.32 127.4 108.49 169.04 90.3 128.18 109.7 170.9 93.36 128.89 110.94 172.57 96.5 129.52 112.21 174.03 99.71 130.06 113.5 175.3 102.98 130.53 114.82 176.36 106.3 130.91 116.16 177.21 109.66 131.21 117.51 177.85 113.05 131.42 118.87 178.28 116.47 131.55 120.24 178.49 119.9 131.59 121.62 178.49 123.33 131.55 122.99 178.28 126.76 131.42 124.36 177.85 130.18 131.21 125.72 177.21 133.58 130.91 127.07 176.36 136.94 130.53 128.41 175.3 140.25 130.06 129.73 174.03 143.52 129.52 131.02 172.57 146.73 128.89 132.29 170.9 149.87 128.18 133.53 169.04 152.93 127.4 134.74 167 155.91 126.55 135.91 164.76 158.79 125.62 137.05 162.36 161.57 124.62 138.14 159.78 164.24 123.56 139.18 157.04 166.79 122.43 140.18 154.15 169.22 121.24 141.12 151.1 171.52 119.99 142.02 147.92 173.68 118.7 142.85 144.61 175.7 117.35 143.63 141.17 177.57 115.95 144.35 137.63 179.29 114.51 145.01 133.98 180.85 113.03 145.6 130.24 182.25 111.52 146.13 126.42 183.48 109.98 146.58 122.52 184.54 108.41 146.97 118.56 185.43 106.81 147.29 114.56 186.15 105.2 147.54 110.52 186.68 103.58 147.72 106.44 187.04 101.94 147.83 102.36 187.22 100.31 147.87 98.26 187.22 98.67 147.83 94.17 187.04 97.04 147.72 90.1 186.68 95.41 147.54 86.06 186.15 93.81 147.29 82.05 185.43 92.21 146.97 78.1 184.54 90.64 146.58 74.2 183.48 89.1 146.13 70.38 182.25 87.58 145.6 66.64 180.85 86.11 145.01 62.99 179.29 84.67 144.35 59.44 177.57 83.27 143.63 56.01 175.7 81.92 142.85 52.69 173.68 80.62 142.02 49.51 171.52 79.37 141.12 46.47 169.22 78.19 140.18 43.58 166.79 77.06 139.18 40.83 164.24 76 138.14 38.26 161.57 75 137.05 35.85 158.79 74.07 135.91 33.62 155.91 73.22 134.74 31.58 152.93 72.43 133.53 29.72 149.87 71.73 132.29 28.05 146.73 71.1 131.02 26.58 143.52 70.55 129.73 25.32 140.25 70.09 128.41 24.26 136.94 69.71 127.07 23.41 133.58 69.41 125.72 22.77 130.18 69.19 124.36 22.34 126.76 69.07 122.99 22.13 123.33 69.02 121.62 22.13 119.9 69.07 120.24 22.34 116.47 69.19 118.87 22.77 113.05 69.41 117.51 23.41 109.66 69.71 116.16 24.26 106.3 70.09 114.82 25.32 102.98 70.55 113.5 26.58 99.71 71.1 112.21 28.05 96.5 71.73 110.94 29.72 93.36 72.43 109.7 31.58 90.3 73.22 108.49 33.62 87.32 74.07 107.32 35.85 84.44 75 106.19 38.26 81.67 76 105.1 40.83 79 77.06 104.05 43.58 76.44 78.19 103.06 46.47 74.01 79.37 102.11 49.51 71.71 80.62 101.21 52.69 69.55 81.92 100.38 56.01 67.53 83.27 99.6 59.44 65.66 84.67 98.88 62.99 63.94 86.11 98.22 66.64 62.38 87.58 97.63 70.38 60.98 89.1 97.11 74.2 59.75 90.64 96.65 78.1 58.69 92.21 96.26 82.05 57.8 93.81 95.94 86.06 57.09 95.41 95.69 90.1 56.55 97.04 95.51 94.17 56.19 98.67 95.4 98.26 56.01 100.31 95.36"/></g><path class="cls-4" d="M143.21,81l-0.54-1.43-0.84,1.3v7c-2.61-2.65-4.48-4.53-7.59-7.62l-0.33-.33-0.46,0-0.51,0L132.2,78.4l-0.61,1.32V81.1c0,6.28,0,9.68,0,15.49-2.82-6.36-4.37-9.82-7.31-16.42L124,79.46l-0.77,0-0.52,0-0.84,0-0.36.77c-3.09,6.6-4.63,9.92-7.72,16.58l-0.52.27-0.3,1.5,1.92,0.06,3.86,0.13,0.88,0,0.34-.82,0.89-2.17,4,0.19,0.93,2.35L126,99l0.8,0,3.95,0.24,0.83,0.06h0l1.18,0.08,3.78,0.28,1.36,0.11V92.74c2.66,2.65,4.55,4.55,7.71,7.75l0.32,0.32,0.45,0,0.38,0,1.39,0.15,0.75-1.46a3.91,3.91,0,0,1-.75-1.45c0-5.84,0-9.22,0-15.5V81.48L147,81.36l-3.8-.37m26.24,20.91-2.76-1c-2.6-3.61-4-5.55-6.42-8.87,2.21-2.35,3.53-3.74,6-6.28L167.94,84,169,82.65l-3.53,1L161,83l-0.66-.09-0.44.51-3.52,4v-5l-1.11-.13-3.8-.44-0.56-1.5-0.84,1.35V101l1.12,0.13,3.78,0.44,1.41,0.17,0.9-1.47-0.9-.58V96.48c1.15,1.66,2.19,3.14,3.69,5.32l0.32,0.45,0.55,0.08,4.54,0.64,3,0.43ZM73.39,79.64l-0.71,0a10,10,0,0,0-7.85,4.47c-0.15-.2-0.31-0.4-0.48-0.59a8.28,8.28,0,0,0-6.29-2.66,10.65,10.65,0,0,0-9.53,5.93V82.14l-0.78-1.42-0.63,1.59c-4.14.5-6.22,0.78-10.35,1.37l-1.08.15v1.11c0,6.32,0,9.66,0,15.65,0,0.11-.87.24-0.87,0.36v0.75L36.66,103l0.47-.07,3.77-.53,1.09-.15V96.21l4.5-.58,1.11-.14V93.84a8.79,8.79,0,0,0,2.12,4.44,8.28,8.28,0,0,0,6.22,2.58h0c0.37,0,.73,0,1.12-0.06L57,99.53l0.12,1.27a10.44,10.44,0,0,0,7.8-4.6,8.1,8.1,0,0,0,.57.69,8.66,8.66,0,0,0,6.47,2.66h0l0.74,0a10.12,10.12,0,0,0,9.66-10.37,9.9,9.9,0,0,0-2.42-6.76,8.64,8.64,0,0,0-6.53-2.75M47.59,89.7V89.51l-1.41.18L42,90.22V89.1c1.94-.26,3.21-0.42,5.43-0.69l0.51-.06a10.47,10.47,0,0,0-.34,1.35m9.31,5.1-0.32,0C55,94.78,54,93.72,54,91.34c0-2.55,1.36-4.18,3.19-4.36L57,85.71,57.17,87h0.29c1.54,0,2.55,1.1,2.63,3.52s-1.36,4.13-3.19,4.32M72.6,93.52H72.38c-1.64,0-2.7-1.18-2.78-3.62s1.34-4.08,3.15-4.2l-0.08-1.28,0.12,1.28H73c1.64,0,2.71,1.2,2.79,3.66s-1.33,4-3.15,4.16m42.28-1a5.31,5.31,0,0,0-1.82-3.73c-0.15-.14-0.3-0.27-0.45-0.39l0.08-.08a4.93,4.93,0,0,0,1.72-3.47,5.22,5.22,0,0,0-2.34-4.22,10.57,10.57,0,0,0-6.09-1.7H105.8a35.68,35.68,0,0,0-4.61.35l-0.84.16L100.2,96.55,100.11,98l1.1,0.14a45.61,45.61,0,0,0,5,.38h0.2a10.23,10.23,0,0,0,6.11-1.66,5.39,5.39,0,0,0,2.3-4.39m-8.55-7.63h0.44l0-1.28,0,1.28c1.22,0.11,1.16.4,1.2,0.59s0,0.22-.13.32a2.41,2.41,0,0,1-1.28.25h-0.24V84.84Zm1.75,7.53a2.36,2.36,0,0,1-1.33.27h-0.43V91.18h0.15l0-1.28v1.28a2.86,2.86,0,0,1,1.55.33,0.43,0.43,0,0,1,.2.45,0.41,0.41,0,0,1-.16.41M88.45,79.09H87.89a39.42,39.42,0,0,0-5,.46l-1.08.16v16.5l-0.13.87,0.13,1.4L83,98.54c1.46,0.07,2.45.12,3.65,0.12l1.46,0c3.61-.1,6.41-1.15,8.3-3a9.67,9.67,0,0,0,2.75-7.11,9,9,0,0,0-2.72-6.75c-1.85-1.74-4.56-2.7-8-2.7m3.24,12.4a4.05,4.05,0,0,1-3,1.1H88.13V85.12h0.34l0-1.28,0.07,1.28h0.2a4.19,4.19,0,0,1,3,.92,3.33,3.33,0,0,1,.91,2.55,4.16,4.16,0,0,1-.9,2.91"/><path class="cls-4" d="M120.89,77.19l0.05-1.26,0,1.26h0.3a5.54,5.54,0,0,0,4.05-1.66,5.86,5.86,0,0,0,1.57-4.12,6,6,0,0,0-5.75-6.23h-0.29a5.55,5.55,0,0,0-4.1,1.69,6.22,6.22,0,0,0,4.2,10.32"/><path class="cls-7" d="M120.87,69.63h0.05L121,68.36l-0.05,1.27c0.65,0,1.13.49,1.18,1.68s-0.45,1.43-1,1.46H121c-0.62,0-1.1-.5-1.15-1.66s0.45-1.45,1-1.48"/><path class="cls-4" d="M107.7,69.29V76.5l1.09,0,2.08,0,1.27,0V69.37l1.42,0,1.28,0,0.21-1.37L114.84,65l-1.22,0c-3-.08-4.5-0.1-7.49-0.13H105v4.49h2.7"/><path class="cls-4" d="M146.22,79l1.37,0.14,0.76-1.43-0.76-3.06-0.32,0V71.93l0.32,0v-4.5l-1.12-.11c-2.27-.23-3.42-0.34-5.69-0.54l-0.61-1.45-0.75,1.33V78.4l1.14,0.1c2.27,0.2,3.39.3,5.66,0.53"/><path class="cls-4" d="M128.54,77.6l1.17,0.07,2.07,0.14,1.33,0.09,0.23-.72,0.06,0.13,0.32,0.64L134.43,78l2.35,0.18,2.37,0.19L139.8,77,138,76.28l-1.55-2.73a4.07,4.07,0,0,0,1.16-2.87,4.28,4.28,0,0,0-1.29-3.14,5.88,5.88,0,0,0-3.77-1.45c-0.6,0-1.13-.06-1.63-0.06s-0.8,0-1.16,0l-0.55-1.24-0.64,1.3V77.6Z"/><path class="cls-4" d="M100.11,76.78h0.07v0a4.54,4.54,0,0,0,3.28-1.25,3.82,3.82,0,0,0,.68-0.92,5.92,5.92,0,0,0,.56-3.71c-0.12-.4-0.53-0.19-0.8-0.55A3.94,3.94,0,0,0,103.6,70l0.28-1,0.53-1.9,0.24-.88-0.74-.51a5.92,5.92,0,0,0-3.2-.93h0a4.6,4.6,0,0,0-3.21,1.17,3.77,3.77,0,0,0-1.19,2.76A3.54,3.54,0,0,0,97,70.9l-0.42,1.4a4.39,4.39,0,0,1-.87,1.46l0,1.38,0.8,0.52a7.19,7.19,0,0,0,3.63,1.11"/><path class="cls-4" d="M82.23,77.08l1.2-.05,0-1.62-0.64-3.53L82,69.5h0.32l0.47-3.55-0.23-1.38-0.43.49c-2.28.1-3.42,0.16-5.7,0.29l-1.18.06L75,75.71l0.44,1.71,1.12-.06c2.27-.13,3.39-0.18,5.66-0.29"/><path class="cls-4" d="M93.62,76.87l1.22,0-0.13-1.46-0.82-3H93.58V69.64H93.9V65.14l-0.32,0c-2.27,0-3.42.08-5.7,0.15l-1.21,0v1.23c0,3.48,0,5.31,0,8.61a1.87,1.87,0,0,1-.11.48l0.11,1.38L88,77c2.27-.07,3.4-0.11,5.67-0.15"/><path class="cls-4" d="M57.66,78.91l1.13-.11V75.48l1.94-.18,1.14-.1V71.31l0.51,0v-4.5L61.9,65.45,61,66.88c-2.27.21-3.41,0.31-5.68,0.55l-1.12.12L53.67,77.84l0.86,1.39,1.06-.11,2.07-.21"/><path class="cls-4" d="M67.78,78.07L68.93,78V76.64l0.3,0.57,0.38,0.72,0.8-.06,2.36-.16,2.09-.14-1.11-1.8L72.22,73.3a4.5,4.5,0,0,0,1.16-3,3.9,3.9,0,0,0-1.17-2.91,4.81,4.81,0,0,0-3.4-1.15l-0.67,0a23.29,23.29,0,0,0-2.78.38l-1,.2L63.88,76.93l0.72,1.39,1.11-.09,2.08-.17"/><path class="cls-3" d="M174.57,83.2V80l-0.1-.14c-11.07-15.84-40.23-27-74.47-27-34.48,0-63.82,11.3-74.71,27.32l-0.1.14v3.31a22,22,0,0,0,0,20.17v3.31l0.1,0.14c10.89,16,40.22,27.3,74.71,27.32,34.24,0,63.4-11.14,74.47-27l0.1-.14v-3.2a22.07,22.07,0,0,0,0-21.07m-1.13,20.48-0.15.28v3.11c-11.13,15.69-40.54,26.24-73.3,26.25-33.06,0-62.56-10.69-73.53-26.58v-3.22l-0.14-.27a20.77,20.77,0,0,1,0-19L26.47,84V80.73c11-15.89,40.46-26.57,73.53-26.59,32.75,0,62.16,10.56,73.3,26.26v3.11l0.15,0.28a20.76,20.76,0,0,1,0,19.89"/><path class="cls-8" d="M174.57,83.2V80l-0.1-.14c-11.07-15.84-40.23-27-74.47-27-34.48,0-63.82,11.3-74.71,27.32l-0.1.14v3.31a22,22,0,0,0,0,20.17v3.31l0.1,0.14c10.89,16,40.22,27.3,74.71,27.32,34.24,0,63.4-11.14,74.47-27l0.1-.14v-3.2a22.07,22.07,0,0,0,0-21.07m-1.13,20.48-0.15.28v3.11c-11.13,15.69-40.54,26.24-73.3,26.25-33.06,0-62.56-10.69-73.53-26.58v-3.22l-0.14-.27a20.77,20.77,0,0,1,0-19L26.47,84V80.73c11-15.89,40.46-26.57,73.53-26.59,32.75,0,62.16,10.56,73.3,26.26v3.11l0.15,0.28a20.76,20.76,0,0,1,0,19.89"/><path class="cls-4" d="M101.85,128.32c6.22-1.34,2.77-9.51,1.4-11.59,0,0-.51-0.74-0.53,0s0.94,8.13-.8,8.16c-0.85,0-1.53-7.77-1.61-8.16a0.3,0.3,0,0,0-.61,0c-0.08.39-1,8.08-1.67,8.11-2,.09-0.71-7.93-0.75-8.11,0-.65-0.52,0-0.52,0-1.39,2.09-4.91,10.34,1.4,11.59,0.3,0.06-.63,1.67-1.19,7.07h6c-0.5-5.24-1.68-7-1.14-7.07"/><path class="cls-9" d="M109.24,108.14a4.44,4.44,0,0,1,2.45-2.81c1.76-.81,4.19-0.68,6.85.36l1.18,0.46-0.29,1.19c-0.08.31-.16,0.61-0.25,0.9-1.2,3.93-3.35,5.06-4.52,5.38a4.17,4.17,0,0,1-3.62-.66l-2-2a7,7,0,0,1,.19-2.86"/><path class="cls-9" d="M81.61,115.17a9,9,0,0,1-5.17-1.63l-0.92-.6,0.43-1a6.09,6.09,0,0,1,5.35-3.42,7.33,7.33,0,0,1,3.4.65,4.29,4.29,0,0,1,2.57,2.09c-0.28,2.19-3.07,3.82-5.66,3.89"/><path class="cls-9" d="M83.39,121.51a18.42,18.42,0,0,1-4.52-.57l-1.3-.3,0.08-1.23c0.33-5.51,3.3-6.18,4.57-6.22a6.07,6.07,0,0,1,4.7,2.26,4.41,4.41,0,0,1,.42,4.08c-0.39.87-1.39,1.92-3.94,2"/><path class="cls-9" d="M92.67,115.58l-0.28.41c-2.14-.36-3.75,0-4.95,1.1-1.4,1.29-2.13,3-1.74,5.72l0.13,0.91,0.94,0.18a6.94,6.94,0,0,0,5.07-1,5.74,5.74,0,0,0,2.11-4.7l0-1,0-1.4Z"/><path class="cls-9" d="M97.92,109.92a5.33,5.33,0,0,0,.7-6.21c-1.18-1.7-3.56-2.6-6.68-2.53l-0.53,0-1.26.07L90,102.49c-0.33,3.78.77,5.75,1.75,6.75A4.3,4.3,0,0,0,95,110.57a7,7,0,0,0,1.2-.21c0.58-.11,1.75-0.43,1.75-0.43"/><path class="cls-9" d="M96.68,109.42c-0.66-1.27-4.56-2-5.62-1.6-1.78.68-3,2.4-3.36,4.84,0,0.14,0,.28-0.05.42l-0.11,1,1.13,0.25c3.54,0.79,5.57.22,6.66-.4a2.81,2.81,0,0,0,1.45-2.23c0.05-.32,0,0.15.09-0.32a2.88,2.88,0,0,0-.18-2"/><path class="cls-9" d="M111.33,110.51a6.4,6.4,0,0,1,1.51,3.18l0.12,0.89-0.8.45c-3.42,1.95-5.45.79-6.55-.53-1.84-2.51-1.63-2.85-1.53-3.5a3.56,3.56,0,0,1,.87-1.71,3,3,0,0,1,2.35-1.06,5.71,5.71,0,0,1,4,2.28"/><path class="cls-9" d="M114.36,113.17a5.42,5.42,0,0,1,5.41-2.5c1.88,0.47,3.39,2.17,4.24,4.8,0,0.15.09,0.3,0.13,0.45l0.31,1.07-1.06.46c-3.32,1.43-5.43,1.13-6.61.62a3.7,3.7,0,0,1-2.14-2.25,5.68,5.68,0,0,1-.16-1.07c-0.07-.52-0.12-1.59-0.12-1.59"/><path class="cls-9" d="M115.34,123.28a6.4,6.4,0,0,1-3.41-3.06l-1.2-2.08a6,6,0,0,1,6.65-2.17c2.23,0.72,3.46,3,4.1,4.74l0.32,0.87-0.75.58c-0.11.09-2.78,2.12-5.72,1.11"/><path class="cls-9" d="M103.2,109.62c-1.28-1-.27-4.27.93-5.5a8.36,8.36,0,0,1,6-2.32l1.11,0,0.26,1c0.48,1.92.26,5.57-4.62,6.89a4.42,4.42,0,0,1-3.71-.06"/><path class="cls-9" d="M104.94,106.13a20.21,20.21,0,0,0-1-4.79L103.53,100l-1.28.2c-5.75.93-6.2,4.18-6.13,5.54a6.47,6.47,0,0,0,2.76,4.81,4.53,4.53,0,0,0,4.31,0c0.88-.51,1.89-1.69,1.75-4.43"/><path class="cls-9" d="M112.35,125.08l-0.89,0a5.47,5.47,0,0,1-4.1-1.21c-1.25-1.21-1.18-2.89-1.13-4.24l0.78-1.73a4.08,4.08,0,0,1,2.27-.91,3.19,3.19,0,0,1,2.68,1.46,6.49,6.49,0,0,1,.72,5.83Z"/><path class="cls-9" d="M99.58,113.33c2.17-2,5.6-.93,6.79-0.07,1.73,1.25,2.52,3.62,2.21,6.68,0,0.17,0,.35-0.06.52l-0.17,1.23-1.3,0c-4.06.11-6.09-1.06-7.09-2.07a4,4,0,0,1-1.19-3.19,6.6,6.6,0,0,1,.31-1.17c0.16-.56-1.54-0.08.49-2"/><path class="cls-9" d="M93.54,120.7l-0.56-1c-1.4-2.44-1.63-4.4-.7-5.81,1.49-2.26,5.62-1.68,7.31.42a2.54,2.54,0,0,1,.49,2.44c-0.48,1.46-2.2,2.6-5.43,3.58Z"/><path class="cls-5" d="M39.92,86.65v3.68c2.27-.3,3.4-0.45,5.67-0.72V93c-2.27.28-3.4,0.42-5.67,0.72v6l-3.82.53V83.63c4.17-.59,6.25-0.87,10.43-1.36v3.55c-2.65.32-4,.48-6.61,0.84"/><path class="cls-10" d="M39.92,86.65v3.68c2.27-.3,3.4-0.45,5.67-0.72V93c-2.27.28-3.4,0.42-5.67,0.72v6l-3.82.53V83.63c4.17-.59,6.25-0.87,10.43-1.36v3.55C43.89,86.13,42.57,86.3,39.92,86.65Z"/><path class="cls-5" d="M56.33,98.14c-5.12.5-8.38-2.81-8.38-7.7a9.34,9.34,0,0,1,8.54-9.53c5.1-.5,8.39,3,8.39,7.88a9.22,9.22,0,0,1-8.55,9.35M56.4,84.38C53.79,84.64,52,87,52,90s1.76,5,4.37,4.71,4.37-2.59,4.37-5.57-1.76-5-4.37-4.75"/><path class="cls-10" d="M56.33,98.14c-5.12.5-8.38-2.81-8.38-7.7a9.34,9.34,0,0,1,8.54-9.53c5.1-.5,8.39,3,8.39,7.88A9.22,9.22,0,0,1,56.33,98.14ZM56.4,84.38C53.79,84.64,52,87,52,90s1.76,5,4.37,4.71,4.37-2.59,4.37-5.57S59,84.12,56.4,84.38Z"/><path class="cls-5" d="M72.15,96.87c-5.13.33-8.4-3.1-8.4-8a9,9,0,0,1,8.56-9.24c5.11-.32,8.41,3.26,8.41,8.17a8.85,8.85,0,0,1-8.57,9.06m0.07-13.76c-2.62.17-4.38,2.46-4.38,5.46s1.76,5,4.38,4.86S76.6,91,76.6,88s-1.76-5.07-4.38-4.9"/><path class="cls-10" d="M72.15,96.87c-5.13.33-8.4-3.1-8.4-8a9,9,0,0,1,8.56-9.24c5.11-.32,8.41,3.26,8.41,8.17A8.85,8.85,0,0,1,72.15,96.87Zm0.07-13.76c-2.62.17-4.38,2.46-4.38,5.46s1.76,5,4.38,4.86S76.6,91,76.6,88,74.84,82.94,72.22,83.11Z"/><path class="cls-5" d="M88.38,96c-1.94.05-3,0-5.07-.1V79.52a39.54,39.54,0,0,1,4.91-.44c6.87-.19,10.09,3.41,10.09,8.12,0,4.91-3.06,8.6-9.93,8.79m0.36-13.47a11.76,11.76,0,0,0-1.58.13v9.83a15.73,15.73,0,0,0,1.83,0c3.62-.1,5.22-2.16,5.22-5.27s-1.9-4.82-5.47-4.72"/><path class="cls-10" d="M88.38,96c-1.94.05-3,0-5.07-.1V79.52a39.54,39.54,0,0,1,4.91-.44c6.87-.19,10.09,3.41,10.09,8.12C98.31,92.11,95.26,95.8,88.38,96Zm0.36-13.47a11.76,11.76,0,0,0-1.58.13v9.83a15.73,15.73,0,0,0,1.83,0c3.62-.1,5.22-2.16,5.22-5.27S92.32,82.42,88.74,82.52Z"/><path class="cls-5" d="M106.77,95.86a47.15,47.15,0,0,1-5-.37V79.21a34.89,34.89,0,0,1,4.64-.34c4.82,0.05,7.26,2.29,7.26,4.62,0,1.75-2.85,3.64-2.85,3.64s3.33,2.08,3.33,4c0,2.59-2.44,4.8-7.42,4.75m0.52-13.62a9.44,9.44,0,0,0-1.74.14v3.48a11.58,11.58,0,0,0,1.43.08c1.85,0,2.78-.64,2.78-1.85,0-1-.84-1.84-2.46-1.86M107,88.56a12.3,12.3,0,0,0-1.45.05v3.87c0.54,0,.84.07,1.61,0.09,1.95,0,2.87-.71,2.87-2s-1-2-3-2"/><path class="cls-10" d="M106.77,95.86a47.15,47.15,0,0,1-5-.37V79.21a34.89,34.89,0,0,1,4.64-.34c4.82,0.05,7.26,2.29,7.26,4.62,0,1.75-2.85,3.64-2.85,3.64s3.33,2.08,3.33,4C114.19,93.71,111.75,95.92,106.77,95.86Zm0.52-13.62a9.44,9.44,0,0,0-1.74.14v3.48a11.58,11.58,0,0,0,1.43.08c1.85,0,2.78-.64,2.78-1.85C109.76,83.1,108.92,82.26,107.29,82.25ZM107,88.56a12.3,12.3,0,0,0-1.45.05v3.87c0.54,0,.84.07,1.61,0.09,1.95,0,2.87-.71,2.87-2S109,88.59,107,88.56Z"/><path class="cls-5" d="M127.6,96.41l-1.24-3.09c-2.29-.12-3.43-0.18-5.72-0.27l-1.25,3-3.91-.13c3.12-6.63,4.68-9.93,7.8-16.5l0.52,0c3.12,6.87,4.68,10.32,7.8,17.24l-4-.24m-4.09-10.19-1.65,3.93,3.28,0.16-1.63-4.08"/><path class="cls-10" d="M127.6,96.41l-1.24-3.09c-2.29-.12-3.43-0.18-5.72-0.27l-1.25,3-3.91-.13c3.12-6.63,4.68-9.93,7.8-16.5l0.52,0c3.12,6.87,4.68,10.32,7.8,17.24Zm-4.09-10.19-1.65,3.93,3.28,0.16Z"/><path class="cls-5" d="M147.44,98.21c-4-4-6-5.95-10-9.84v8.71l-3.84-.28v-17l0.52,0c3.94,3.86,5.91,5.81,9.84,9.76V81l3.83,0.37V98.24l-0.38,0"/><path class="cls-10" d="M147.44,98.21c-4-4-6-5.95-10-9.84v8.71l-3.84-.28v-17l0.52,0c3.94,3.86,5.91,5.81,9.84,9.76V81l3.83,0.37V98.24Z"/><path class="cls-5" d="M162.2,99.66c-2.42-3.44-3.63-5.15-6-8.56,0,3.12,0,4.68,0,7.8l-3.83-.44V81.8l3.83,0.44v7.25c2.31-2.62,3.47-3.93,5.78-6.53l4.52,0.61c-2.7,2.79-4.06,4.2-6.77,7,2.85,3.85,4.28,5.79,7.12,9.69C165,100,164,99.91,162.2,99.66"/><path class="cls-10" d="M162.2,99.66c-2.42-3.44-3.63-5.15-6-8.56,0,3.12,0,4.68,0,7.8l-3.83-.44V81.8l3.83,0.44v7.25c2.31-2.62,3.47-3.93,5.78-6.53l4.52,0.61c-2.7,2.79-4.06,4.2-6.77,7,2.85,3.85,4.28,5.79,7.12,9.69C165,100,164,99.91,162.2,99.66Z"/><path class="cls-5" d="M56.78,69.1v2l3.14-.29v1.87L56.78,73v3.34l-2.12.21V67.36C57,67.12,58.13,67,60.44,66.8v2l-3.66.34"/><path class="cls-10" d="M56.78,69.1v2l3.14-.29v1.87L56.78,73v3.34l-2.12.21V67.36C57,67.12,58.13,67,60.44,66.8v2Z"/><path class="cls-5" d="M69.8,75.31l-1.56-2.89-0.36,0c-0.31,0-.49,0-0.79,0v3L65,75.67V66.55a22.14,22.14,0,0,1,2.7-.36c2.84-.21,4,1.09,4,2.78a3.35,3.35,0,0,1-1.57,2.77l2.15,3.41-2.41.16m-1.88-7.23a4.26,4.26,0,0,0-.82.13v2.54a6.47,6.47,0,0,0,.67,0,1.54,1.54,0,0,0,1.66-1.54,1.19,1.19,0,0,0-1.51-1.11"/><path class="cls-10" d="M69.8,75.31l-1.56-2.89-0.36,0c-0.31,0-.49,0-0.79,0v3L65,75.67V66.55a22.14,22.14,0,0,1,2.7-.36c2.84-.21,4,1.09,4,2.78a3.35,3.35,0,0,1-1.57,2.77l2.15,3.41Zm-1.88-7.23a4.26,4.26,0,0,0-.82.13v2.54a6.47,6.47,0,0,0,.67,0,1.54,1.54,0,0,0,1.66-1.54A1.19,1.19,0,0,0,67.92,68.08Z"/><path class="cls-5" d="M76.5,74.91V65.71c2.32-.13,3.48-0.18,5.8-0.29v2l-3.67.18V69.2L82,69V70.9l-3.35.16v1.8l3.67-.17v1.95c-2.32.1-3.48,0.16-5.8,0.29"/><path class="cls-10" d="M76.5,74.91V65.71c2.32-.13,3.48-0.18,5.8-0.29v2l-3.67.18V69.2L82,69V70.9l-3.35.16v1.8l3.67-.17v1.95C80,74.73,78.82,74.79,76.5,74.91Z"/><path class="cls-5" d="M87.77,74.45V65.25c2.32-.08,3.48-0.11,5.8-0.16v2l-3.68.09v1.64l3.35-.08v1.86l-3.35.08v1.79l3.68-.09V74.3c-2.32,0-3.48.08-5.8,0.16"/><path class="cls-10" d="M87.77,74.45V65.25c2.32-.08,3.48-0.11,5.8-0.16v2l-3.68.09v1.64l3.35-.08v1.86l-3.35.08v1.79l3.68-.09V74.3C91.25,74.34,90.09,74.37,87.77,74.45Z"/><path class="cls-5" d="M100.6,74.35a6.19,6.19,0,0,1-3.09-.91L98.1,71.5a4.54,4.54,0,0,0,2.56.87,0.85,0.85,0,0,0,1-.81c0-.48-0.24-0.8-1.64-1.36-1.61-.64-2.17-1.58-2.17-2.68,0-1.34,1.08-2.67,3.23-2.68a5,5,0,0,1,2.56.71l-0.54,1.91a4.1,4.1,0,0,0-2-.75,0.89,0.89,0,0,0-1.09.75c0,0.61.47,0.8,1.61,1.28,1.71,0.72,2.23,1.56,2.23,2.74,0,1.47-1.06,2.86-3.26,2.87"/><path class="cls-10" d="M100.6,74.35a6.19,6.19,0,0,1-3.09-.91L98.1,71.5a4.54,4.54,0,0,0,2.56.87,0.85,0.85,0,0,0,1-.81c0-.48-0.24-0.8-1.64-1.36-1.61-.64-2.17-1.58-2.17-2.68,0-1.34,1.08-2.67,3.23-2.68a5,5,0,0,1,2.56.71l-0.54,1.91a4.1,4.1,0,0,0-2-.75,0.89,0.89,0,0,0-1.09.75c0,0.61.47,0.8,1.61,1.28,1.71,0.72,2.23,1.56,2.23,2.74C103.86,73,102.8,74.34,100.6,74.35Z"/><path class="cls-5" d="M111.71,67v7.25l-2.12,0V67l-2.75,0V65c3.05,0,4.57.05,7.63,0.13v2L111.71,67"/><path class="cls-10" d="M111.71,67v7.25l-2.12,0V67l-2.75,0V65c3.05,0,4.57.05,7.63,0.13v2Z"/><path class="cls-5" d="M121.72,74.77a4.71,4.71,0,0,1-4.65-4.92,4.36,4.36,0,0,1,4.74-4.58,4.76,4.76,0,0,1,4.65,5,4.33,4.33,0,0,1-4.73,4.52m0-7.6c-1.45-.06-2.42,1.1-2.42,2.76a2.68,2.68,0,0,0,2.42,2.95c1.45,0.06,2.43-1.1,2.43-2.74a2.69,2.69,0,0,0-2.43-3"/><path class="cls-10" d="M121.72,74.77a4.71,4.71,0,0,1-4.65-4.92,4.36,4.36,0,0,1,4.74-4.58,4.76,4.76,0,0,1,4.65,5A4.33,4.33,0,0,1,121.72,74.77Zm0-7.6c-1.45-.06-2.42,1.1-2.42,2.76a2.68,2.68,0,0,0,2.42,2.95c1.45,0.06,2.43-1.1,2.43-2.74A2.69,2.69,0,0,0,121.76,67.17Z"/><path class="cls-5" d="M135.31,75.43l-1.56-3.11h-0.36l-0.79-.08v3l-2.12-.14V66a22.15,22.15,0,0,1,2.69,0c2.84,0.19,4,1.66,4,3.34a2.83,2.83,0,0,1-1.57,2.54l2.15,3.72-2.41-.18m-1.89-7.5a4.17,4.17,0,0,0-.82,0v2.53a6.54,6.54,0,0,0,.67.09,1.32,1.32,0,0,0,1.66-1.3,1.4,1.4,0,0,0-1.51-1.33"/><path class="cls-10" d="M135.31,75.43l-1.56-3.11h-0.36l-0.79-.08v3l-2.12-.14V66a22.15,22.15,0,0,1,2.69,0c2.84,0.19,4,1.66,4,3.34a2.83,2.83,0,0,1-1.57,2.54l2.15,3.72Zm-1.89-7.5a4.17,4.17,0,0,0-.82,0v2.53a6.54,6.54,0,0,0,.67.09,1.32,1.32,0,0,0,1.66-1.3A1.4,1.4,0,0,0,133.42,67.94Z"/><path class="cls-5" d="M141.58,75.94V66.73c2.32,0.2,3.47.31,5.78,0.54v2l-3.66-.35v1.65L147,70.84V72.7l-3.34-.32v1.8l3.66,0.35v1.95c-2.31-.23-3.47-0.34-5.78-0.54"/><path class="cls-10" d="M141.58,75.94V66.73c2.32,0.2,3.47.31,5.78,0.54v2l-3.66-.35v1.65L147,70.84V72.7l-3.34-.32v1.8l3.66,0.35v1.95C145.05,76.24,143.89,76.14,141.58,75.94Z"/><path class="cls-9" d="M39.92,86.65v3.68c2.27-.3,3.4-0.45,5.67-0.72V93c-2.27.28-3.4,0.42-5.67,0.72v6l-3.82.53V83.63c4.17-.59,6.25-0.87,10.43-1.36v3.55c-2.65.32-4,.48-6.61,0.84"/><path class="cls-9" d="M56.33,98.14c-5.12.5-8.38-2.81-8.38-7.7a9.34,9.34,0,0,1,8.54-9.53c5.1-.5,8.39,3,8.39,7.88a9.22,9.22,0,0,1-8.55,9.35M56.4,84.38C53.79,84.64,52,87,52,90s1.76,5,4.37,4.71,4.37-2.59,4.37-5.57-1.76-5-4.37-4.75"/><path class="cls-9" d="M72.15,96.87c-5.13.33-8.4-3.1-8.4-8a9,9,0,0,1,8.56-9.24c5.11-.32,8.41,3.26,8.41,8.17a8.85,8.85,0,0,1-8.57,9.06m0.07-13.76c-2.62.17-4.38,2.46-4.38,5.46s1.76,5,4.38,4.86S76.6,91,76.6,88s-1.76-5.07-4.38-4.9"/><path class="cls-9" d="M88.38,96c-1.94.05-3,0-5.07-.1V79.52a39.54,39.54,0,0,1,4.91-.44c6.87-.19,10.09,3.41,10.09,8.12,0,4.91-3.06,8.6-9.93,8.79m0.36-13.47a11.76,11.76,0,0,0-1.58.13v9.83a15.73,15.73,0,0,0,1.83,0c3.62-.1,5.22-2.16,5.22-5.27s-1.9-4.82-5.47-4.72"/><path class="cls-9" d="M106.77,95.86a47.15,47.15,0,0,1-5-.37V79.21a34.89,34.89,0,0,1,4.64-.34c4.82,0.05,7.26,2.29,7.26,4.62,0,1.75-2.85,3.64-2.85,3.64s3.33,2.08,3.33,4c0,2.59-2.44,4.8-7.42,4.75m0.52-13.62a9.44,9.44,0,0,0-1.74.14v3.48a11.58,11.58,0,0,0,1.43.08c1.85,0,2.78-.64,2.78-1.85,0-1-.84-1.84-2.46-1.86M107,88.56a12.3,12.3,0,0,0-1.45.05v3.87c0.54,0,.84.07,1.61,0.09,1.95,0,2.87-.71,2.87-2s-1-2-3-2"/><path class="cls-9" d="M127.6,96.41l-1.24-3.09c-2.29-.12-3.43-0.18-5.72-0.27l-1.25,3-3.91-.13c3.12-6.63,4.68-9.93,7.8-16.5l0.52,0c3.12,6.87,4.68,10.32,7.8,17.24l-4-.24m-4.09-10.19-1.65,3.93,3.28,0.16-1.63-4.08"/><path class="cls-9" d="M147.44,98.21c-4-4-6-5.95-10-9.84v8.71l-3.84-.28v-17l0.52,0c3.94,3.86,5.91,5.81,9.84,9.76V81l3.83,0.37V98.24l-0.38,0"/><path class="cls-9" d="M162.2,99.66c-2.42-3.44-3.63-5.15-6-8.56,0,3.12,0,4.68,0,7.8l-3.83-.44V81.8l3.83,0.44v7.25c2.31-2.62,3.47-3.93,5.78-6.53l4.52,0.61c-2.7,2.79-4.06,4.2-6.77,7,2.85,3.85,4.28,5.79,7.12,9.69C165,100,164,99.91,162.2,99.66"/><path class="cls-9" d="M56.78,69.1v2l3.14-.29v1.87L56.78,73v3.34l-2.12.21V67.36C57,67.12,58.13,67,60.44,66.8v2l-3.66.34"/><path class="cls-9" d="M69.8,75.31l-1.56-2.89-0.36,0c-0.31,0-.49,0-0.79,0v3L65,75.67V66.55a22.14,22.14,0,0,1,2.7-.36c2.84-.21,4,1.09,4,2.78a3.35,3.35,0,0,1-1.57,2.77l2.15,3.41-2.41.16m-1.88-7.23a4.26,4.26,0,0,0-.82.13v2.54a6.47,6.47,0,0,0,.67,0,1.54,1.54,0,0,0,1.66-1.54,1.19,1.19,0,0,0-1.51-1.11"/><path class="cls-9" d="M76.5,74.91V65.71c2.32-.13,3.48-0.18,5.8-0.29v2l-3.67.18V69.2L82,69V70.9l-3.35.16v1.8l3.67-.17v1.95c-2.32.1-3.48,0.16-5.8,0.29"/><path class="cls-9" d="M87.77,74.45V65.25c2.32-.08,3.48-0.11,5.8-0.16v2l-3.68.09v1.64l3.35-.08v1.86l-3.35.08v1.79l3.68-.09V74.3c-2.32,0-3.48.08-5.8,0.16"/><path class="cls-9" d="M100.6,74.35a6.19,6.19,0,0,1-3.09-.91L98.1,71.5a4.54,4.54,0,0,0,2.56.87,0.85,0.85,0,0,0,1-.81c0-.48-0.24-0.8-1.64-1.36-1.61-.64-2.17-1.58-2.17-2.68,0-1.34,1.08-2.67,3.23-2.68a5,5,0,0,1,2.56.71l-0.54,1.91a4.1,4.1,0,0,0-2-.75,0.89,0.89,0,0,0-1.09.75c0,0.61.47,0.8,1.61,1.28,1.71,0.72,2.23,1.56,2.23,2.74,0,1.47-1.06,2.86-3.26,2.87"/><path class="cls-9" d="M111.71,67v7.25l-2.12,0V67l-2.75,0V65c3.05,0,4.57.05,7.63,0.13v2L111.71,67"/><path class="cls-9" d="M121.72,74.77a4.71,4.71,0,0,1-4.65-4.92,4.36,4.36,0,0,1,4.74-4.58,4.76,4.76,0,0,1,4.65,5,4.33,4.33,0,0,1-4.73,4.52m0-7.6c-1.45-.06-2.42,1.1-2.42,2.76a2.68,2.68,0,0,0,2.42,2.95c1.45,0.06,2.43-1.1,2.43-2.74a2.69,2.69,0,0,0-2.43-3"/><path class="cls-9" d="M135.31,75.43l-1.56-3.11h-0.36l-0.79-.08v3l-2.12-.14V66a22.15,22.15,0,0,1,2.69,0c2.84,0.19,4,1.66,4,3.34a2.83,2.83,0,0,1-1.57,2.54l2.15,3.72-2.41-.18m-1.89-7.5a4.17,4.17,0,0,0-.82,0v2.53a6.54,6.54,0,0,0,.67.09,1.32,1.32,0,0,0,1.66-1.3,1.4,1.4,0,0,0-1.51-1.33"/><path class="cls-9" d="M141.58,75.94V66.73c2.32,0.2,3.47.31,5.78,0.54v2l-3.66-.35v1.65L147,70.84V72.7l-3.34-.32v1.8l3.66,0.35v1.95c-2.31-.23-3.47-0.34-5.78-0.54"/><path class="cls-9" d="M45.65,143.45v0.78H44.13v2.11H45.5v0.78H44.13v3.06H43.24v-6.73h2.42Z"/><path class="cls-9" d="M51,146.81c0,1.21,0,3.45-1.75,3.45s-1.75-2.24-1.75-3.45,0-3.45,1.75-3.45S51,145.6,51,146.81Zm-2.55,0c0,1.43.1,2.61,0.8,2.61s0.8-1.19.8-2.61-0.1-2.61-.8-2.61S48.49,145.38,48.49,146.81Z"/><path class="cls-9" d="M56.72,146.81c0,1.21,0,3.45-1.75,3.45s-1.75-2.24-1.75-3.45,0-3.45,1.75-3.45S56.72,145.6,56.72,146.81Zm-2.55,0c0,1.43.1,2.61,0.8,2.61s0.8-1.19.8-2.61-0.1-2.61-.8-2.61S54.17,145.38,54.17,146.81Z"/><path class="cls-9" d="M60.06,143.45c1.05,0,2.25.07,2.25,3.48,0,3.1-1,3.25-2.63,3.25H59.06v-6.73h1Zm-0.11.76v5.21c1.47,0,1.41-1.35,1.41-2.49S61.46,144.12,60,144.21Z"/><path class="cls-9" d="M69,145.69a1.22,1.22,0,1,1-1.21,1.23A1.23,1.23,0,0,1,69,145.69Z"/><path class="cls-9" d="M77.93,144.37a1.29,1.29,0,0,0-.57-0.17c-1.25,0-1.26,1.82-1.26,2.66s0.07,2.57,1.29,2.57a1.11,1.11,0,0,0,.54-0.13v0.78a1.26,1.26,0,0,1-.71.19c-1.82,0-2.06-1.94-2.06-3.35s0.17-3.56,2-3.56a1.38,1.38,0,0,1,.78.2v0.81Z"/><path class="cls-9" d="M83.55,146.81c0,1.21,0,3.45-1.75,3.45S80,148,80,146.81s0-3.45,1.75-3.45S83.55,145.6,83.55,146.81Zm-2.55,0c0,1.43.1,2.61,0.8,2.61s0.8-1.19.8-2.61-0.1-2.61-.8-2.61S81,145.38,81,146.81Z"/><path class="cls-9" d="M86.83,145.45L87,147.7v2.47H86.07v-6.73h0.86l1.57,5.11,0,0-0.21-2.69v-2.4h0.89v6.73H88.36L86.79,145l0,0Z"/><path class="cls-9" d="M92.47,145.45l0.13,2.26v2.47H91.71v-6.73h0.86l1.57,5.11,0,0-0.21-2.69v-2.4h0.89v6.73H94L92.43,145l0,0Z"/><path class="cls-9" d="M100.1,143.45v0.78H98.6v2.11h1.35v0.78H98.6v2.28h1.51v0.78H97.7v-6.73h2.4Z"/><path class="cls-9" d="M104.91,144.37a1.29,1.29,0,0,0-.57-0.17c-1.25,0-1.26,1.82-1.26,2.66s0.07,2.57,1.29,2.57a1.11,1.11,0,0,0,.54-0.13v0.78a1.26,1.26,0,0,1-.71.19c-1.82,0-2.06-1.94-2.06-3.35s0.17-3.56,2-3.56a1.38,1.38,0,0,1,.78.2v0.81Z"/><path class="cls-9" d="M109.76,143.45v0.78h-1v6h-0.89v-6H106.8v-0.78h3Z"/><path class="cls-9" d="M113.12,150.18h-0.89v-6.73h0.89v6.73Z"/><path class="cls-9" d="M119.32,146.81c0,1.21,0,3.45-1.75,3.45s-1.75-2.24-1.75-3.45,0-3.45,1.75-3.45S119.32,145.6,119.32,146.81Zm-2.55,0c0,1.43.1,2.61,0.8,2.61s0.8-1.19.8-2.61-0.1-2.61-.8-2.61S116.77,145.38,116.77,146.81Z"/><path class="cls-9" d="M122.78,145.45l0.13,2.26v2.47H122v-6.73h0.86l1.57,5.11,0,0-0.21-2.69v-2.4h0.89v6.73h-0.83L122.74,145l0,0Z"/><path class="cls-9" d="M131.49,145.69a1.22,1.22,0,1,1-1.21,1.23A1.23,1.23,0,0,1,131.49,145.69Z"/><path class="cls-9" d="M138.52,143.45v2.62h1.35v-2.62h0.89v6.73h-0.89v-3.33h-1.35v3.33h-0.89v-6.73h0.89Z"/><path class="cls-9" d="M146.77,146.81c0,1.21,0,3.45-1.75,3.45s-1.75-2.24-1.75-3.45,0-3.45,1.75-3.45S146.77,145.6,146.77,146.81Zm-2.55,0c0,1.43.1,2.61,0.8,2.61s0.8-1.19.8-2.61-0.1-2.61-.8-2.61S144.22,145.38,144.22,146.81Z"/><path class="cls-9" d="M149.3,150.18v-6.73h1.07c0.77,0,1.75.07,1.75,1.8,0,1.36-.54,2-1.93,1.94v3H149.3Zm0.89-6v2.23c0.77,0.05,1-.37,1-1.12a0.9,0.9,0,0,0-.86-1.12h-0.13Z"/><path class="cls-9" d="M156.76,143.45v0.78h-1.51v2.11h1.35v0.78h-1.35v2.28h1.51v0.78h-2.4v-6.73h2.4Z"/><path class="cls-4" d="M101.88,128.25c6.12-1.38,2.73-9.79,1.37-11.94,0,0-.5-0.76-0.52,0s0.92,8.38-.79,8.4c-0.83,0-1.51-8-1.58-8.4a0.3,0.3,0,1,0-.59,0c-0.08.4-1,8.33-1.64,8.36-1.93.1-.7-8.17-0.74-8.36,0-.66-0.52,0-0.52,0C95.5,118.47,92,127,98.25,128.25c0.29,0.06-.63,1.72-1.17,7.29H103c-0.49-5.39-1.65-7.17-1.12-7.29"/><path class="cls-9" d="M109.39,108.22a4.54,4.54,0,0,1,2.41-2.9c1.73-.83,4.13-0.7,6.74.37l1.16,0.47-0.29,1.22c-0.08.32-.16,0.63-0.24,0.93-1.18,4.06-3.29,5.22-4.45,5.54a4,4,0,0,1-3.57-.67l-2-2a7.58,7.58,0,0,1,.19-2.94"/><path class="cls-11" d="M112,111.93c1.44,1.29,4.67.89,6-4.89-4-1.65-10-.09-7.32,4,0.38,0.26.83,0.61,1.31,0.94"/><path class="cls-1" d="M100.31,109.14c-0.86-2-6-3.09-7.36-2.47-2.33,1-3.89,3.69-4.39,7.45,0,0.21-.05.42-0.07,0.64l-0.15,1.52,1.48,0.39c4.64,1.21,7.3.34,8.72-.61a4.43,4.43,0,0,0,1.9-3.43,5.38,5.38,0,0,0,0-1.29,4.82,4.82,0,0,0-.16-2.2"/><path class="cls-12" d="M83.59,116.22c-1.76-1.22-4.28-1.8-4.57,3.48,7,1.76,6-2.15,5.48-2.72a8.4,8.4,0,0,0-.91-0.75"/><path class="cls-13" d="M87.66,122.29c-0.47-3.45.47-6.79,4.9-6a1.12,1.12,0,0,1,.54.9c-0.13,5.53-3.32,5.36-5.43,5.11"/><path class="cls-9" d="M81.53,115.23a8.58,8.58,0,0,1-5.09-1.68l-0.91-.62,0.42-1a6,6,0,0,1,5.27-3.53,7,7,0,0,1,3.35.67,4.29,4.29,0,0,1,2.53,2.15c-0.27,2.25-3,3.94-5.57,4"/><path class="cls-14" d="M77.19,112.44c4.09,2.8,7.16,1,8.35-.86a5.18,5.18,0,0,0-1.48-1.26c-5.11-2.08-6.87,2.12-6.87,2.12"/><path class="cls-9" d="M91.7,106.55a4.13,4.13,0,0,0-2.16-2.68c-1.57-.78-3.75-0.69-6.15.25l-1.07.42,0.25,1.12c0.07,0.3.14,0.58,0.21,0.85,1,3.72,2.94,4.8,4,5.11a7.45,7.45,0,0,0,4.24-.91,3.83,3.83,0,0,0,.84-1.48,7.1,7.1,0,0,0-.14-2.69"/><path class="cls-15" d="M89.3,109.91c-1.33,1.16-4.27.75-5.42-4.53,3.69-1.46,7.18-.77,6.63,3.69a4,4,0,0,1-1.2.84"/><path class="cls-9" d="M111.46,110.18a6.72,6.72,0,0,1,1.76,3.12l0.19,0.9-0.75.54c-3.19,2.31-5.28,1.3-6.47,0-2-2.41-1.84-2.79-1.8-3.45a3.76,3.76,0,0,1,.71-1.84,2.93,2.93,0,0,1,2.22-1.3,5.52,5.52,0,0,1,4.15,2"/><path class="cls-16" d="M105.92,111.14c1.2,1.89,2.64,4.75,6.17,2.19-0.81-3.88-4.35-5.15-5.71-3.16a2.22,2.22,0,0,0-.46,1"/><path class="cls-9" d="M114.54,113.2a5.24,5.24,0,0,1,5.33-2.58c1.85,0.48,3.34,2.24,4.18,4.95,0,0.15.09,0.31,0.13,0.47l0.3,1.1-1,.47c-3.27,1.48-5.35,1.16-6.51.64a3.75,3.75,0,0,1-2.1-2.32,6,6,0,0,1-.16-1.1c-0.07-.54-0.12-1.64-0.12-1.64"/><path class="cls-17" d="M116,114.74c-0.13,1.76,1.95,3.88,6.87,1.65-1-3.83-3.67-6.23-6.92-3.11a5.59,5.59,0,0,1,0,1.47"/><path class="cls-9" d="M98,109.87a5.7,5.7,0,0,0,.5-6.42c-1.22-1.69-3.59-2.49-6.67-2.27l-0.52,0-1.24.13L90,102.61c-0.2,3.9.94,5.88,1.93,6.85a4.1,4.1,0,0,0,3.18,1.22,6.85,6.85,0,0,0,1.18-.28c0.57-.14,1.71-0.53,1.71-0.53"/><path class="cls-18" d="M95.89,109c-1.73.84-4.7-.43-4.4-6.31,4.29-.47,7.77,1.25,5.9,5.78-0.49.19-.61,0.25-1.51,0.53"/><path class="cls-9" d="M115.45,123.32a6.39,6.39,0,0,1-3.36-3.15L110.91,118a5.8,5.8,0,0,1,6.55-2.23c2.2,0.74,3.4,3.09,4,4.88l0.32,0.9-0.74.6c-0.11.09-2.74,2.18-5.63,1.15"/><path class="cls-19" d="M120.22,121.12c-1.16-3.28-3.54-5.82-7.11-3.09a4.43,4.43,0,0,0,.16,1.48c2.76,5,7,1.6,7,1.6"/><path class="cls-9" d="M103.33,109.8c-1.26-1-.26-4.4.91-5.67a8.05,8.05,0,0,1,5.93-2.4l1.1,0,0.25,1.07c0.47,2,.25,5.74-4.55,7.1a4.17,4.17,0,0,1-3.65-.06"/><path class="cls-20" d="M110.21,103.08c-5,.14-6.63,2.92-6,5.68a2.81,2.81,0,0,0,1.68.08c5.36-1.32,4.31-5.76,4.31-5.76"/><path class="cls-9" d="M105.21,106a20,20,0,0,0-1-4.87l-0.44-1.38-1.33.21c-6,.94-6.44,4.25-6.36,5.63a6.54,6.54,0,0,0,2.87,4.89,4.8,4.8,0,0,0,4.47,0c0.91-.52,2-1.72,1.81-4.5"/><path class="cls-21" d="M98.82,107.89c-1.41-1.84-1.62-5.35,3.83-6.21,2.86,9-1.57,7.57-2.32,6.92-0.89-.46-1.51-0.71-1.51-0.71"/><path class="cls-9" d="M112.3,125.07l-0.87,0a5.21,5.21,0,0,1-4-1.24c-1.23-1.24-1.16-3-1.11-4.37L107,117.7a3.93,3.93,0,0,1,2.24-.94,3.1,3.1,0,0,1,2.64,1.5,7,7,0,0,1,.71,6Z"/><path class="cls-22" d="M107.63,119.25c-0.07,2.11-.37,4.62,3.76,4.5,0.9-2.18-.42-6.39-2.59-5.54a2.23,2.23,0,0,0-1.16,1"/><path class="cls-9" d="M99.61,113.36c2.14-2.08,5.51-1,6.68-.07,1.7,1.29,2.47,3.73,2.18,6.88q0,0.26-.06.54L108.25,122,107,122c-4,.12-6-1.1-7-2.13a4.2,4.2,0,0,1-1.17-3.29,6.94,6.94,0,0,1,.31-1.2c0.16-.58-1.52-0.08.48-2"/><path class="cls-23" d="M100.56,115.87c-0.89,1.75.34,4.82,6.37,4.64,0.58-4.38-1.11-8-5.79-6.17a16,16,0,0,1-.58,1.53"/><path class="cls-24" d="M105.92,111.14c1.2,1.89,2.64,4.75,6.17,2.19-0.81-3.88-4.35-5.15-5.71-3.16a2.22,2.22,0,0,0-.46,1"/><path class="cls-26" d="M96.32,111.06c0.57,2.14-1.05,4.37-8.07,2.66,0.51-4.92,2.77-7.29,7.77-4.14a2.8,2.8,0,0,0,.3,1.18"/><path class="cls-27" d="M95.65,111.22c0.48,1.78-.88,3.64-6.72,2.22,0.43-4.1,2.31-6.07,6.47-3.45a3.75,3.75,0,0,0,.25,1.24"/><path class="cls-9" d="M93.63,120.86l-0.55-1c-1.38-2.52-1.61-4.53-.7-6,1.47-2.33,5.53-1.74,7.19.43a2.71,2.71,0,0,1,.48,2.51c-0.47,1.5-2.17,2.68-5.34,3.69Z"/><path class="cls-28" d="M96.42,113.88c-0.69-.54-5.27-0.44-2.13,5.31,7.06-2.26,3.92-4.6,3.13-4.81l-1-.5"/></g></g></svg>